{"asset":{"version":"2.0","generator":"Blockbench 5.0.7 glTF exporter"},"scenes":[{"nodes":[11],"name":"blockbench_export"}],"scene":0,"nodes":[{"name":"Body","mesh":0},{"translation":[0,-1.125,0],"name":"Head","mesh":1},{"translation":[0,1.125,0],"name":"Head","children":[1]},{"translation":[-0.125,-0.375,-0.125],"name":"leg0","mesh":2},{"translation":[0.125,0.375,0.125],"name":"leg0","children":[3]},{"translation":[0.125,-0.375,-0.125],"name":"leg1","mesh":3},{"translation":[-0.125,0.375,0.125],"name":"leg1","children":[5]},{"translation":[-0.125,-0.375,0.125],"name":"leg2","mesh":4},{"translation":[0.125,0.375,-0.125],"name":"leg2","children":[7]},{"translation":[0.125,-0.375,0.125],"name":"leg3","mesh":5},{"translation":[-0.125,0.375,-0.125],"name":"leg3","children":[9]},{"name":"Body","children":[0,2,4,6,8,10]}],"bufferViews":[{"buffer":0,"byteOffset":0,"byteLength":288,"target":34962,"byteStride":12},{"buffer":0,"byteOffset":288,"byteLength":288,"target":34962,"byteStride":12},{"buffer":0,"byteOffset":576,"byteLength":192,"target":34962,"byteStride":8},{"buffer":0,"byteOffset":768,"byteLength":72,"target":34963},{"buffer":0,"byteOffset":840,"byteLength":288,"target":34962,"byteStride":12},{"buffer":0,"byteOffset":1128,"byteLength":288,"target":34962,"byteStride":12},{"buffer":0,"byteOffset":1416,"byteLength":192,"target":34962,"byteStride":8},{"buffer":0,"byteOffset":1608,"byteLength":72,"target":34963},{"buffer":0,"byteOffset":1680,"byteLength":288,"target":34962,"byteStride":12},{"buffer":0,"byteOffset":1968,"byteLength":288,"target":34962,"byteStride":12},{"buffer":0,"byteOffset":2256,"byteLength":192,"target":34962,"byteStride":8},{"buffer":0,"byteOffset":2448,"byteLength":72,"target":34963},{"buffer":0,"byteOffset":2520,"byteLength":288,"target":34962,"byteStride":12},{"buffer":0,"byteOffset":2808,"byteLength":288,"target":34962,"byteStride":12},{"buffer":0,"byteOffset":3096,"byteLength":192,"target":34962,"byteStride":8},{"buffer":0,"byteOffset":3288,"byteLength":72,"target":34963},{"buffer":0,"byteOffset":3360,"byteLength":288,"target":34962,"byteStride":12},{"buffer":0,"byteOffset":3648,"byteLength":288,"target":34962,"byteStride":12},{"buffer":0,"byteOffset":3936,"byteLength":192,"target":34962,"byteStride":8},{"buffer":0,"byteOffset":4128,"byteLength":72,"target":34963},{"buffer":0,"byteOffset":4200,"byteLength":288,"target":34962,"byteStride":12},{"buffer":0,"byteOffset":4488,"byteLength":288,"target":34962,"byteStride":12},{"buffer":0,"byteOffset":4776,"byteLength":192,"target":34962,"byteStride":8},{"buffer":0,"byteOffset":4968,"byteLength":72,"target":34963},{"buffer":0,"byteOffset":5040,"byteLength":4},{"buffer":0,"byteOffset":5044,"byteLength":16},{"buffer":0,"byteOffset":5060,"byteLength":4},{"buffer":0,"byteOffset":5064,"byteLength":12},{"buffer":0,"byteOffset":5076,"byteLength":4},{"buffer":0,"byteOffset":5080,"byteLength":16},{"buffer":0,"byteOffset":5096,"byteLength":4},{"buffer":0,"byteOffset":5100,"byteLength":12},{"buffer":0,"byteOffset":5112,"byteLength":4},{"buffer":0,"byteOffset":5116,"byteLength":16},{"buffer":0,"byteOffset":5132,"byteLength":4},{"buffer":0,"byteOffset":5136,"byteLength":12},{"buffer":0,"byteOffset":5148,"byteLength":4},{"buffer":0,"byteOffset":5152,"byteLength":16},{"buffer":0,"byteOffset":5168,"byteLength":4},{"buffer":0,"byteOffset":5172,"byteLength":12},{"buffer":0,"byteOffset":5184,"byteLength":4},{"buffer":0,"byteOffset":5188,"byteLength":16},{"buffer":0,"byteOffset":5204,"byteLength":4},{"buffer":0,"byteOffset":5208,"byteLength":12},{"buffer":0,"byteOffset":5220,"byteLength":4},{"buffer":0,"byteOffset":5224,"byteLength":16},{"buffer":0,"byteOffset":5240,"byteLength":4},{"buffer":0,"byteOffset":5244,"byteLength":12},{"buffer":0,"byteOffset":5256,"byteLength":8},{"buffer":0,"byteOffset":5264,"byteLength":32},{"buffer":0,"byteOffset":5296,"byteLength":8},{"buffer":0,"byteOffset":5304,"byteLength":24},{"buffer":0,"byteOffset":5328,"byteLength":8},{"buffer":0,"byteOffset":5336,"byteLength":32},{"buffer":0,"byteOffset":5368,"byteLength":8},{"buffer":0,"byteOffset":5376,"byteLength":24},{"buffer":0,"byteOffset":5400,"byteLength":16},{"buffer":0,"byteOffset":5416,"byteLength":64},{"buffer":0,"byteOffset":5480,"byteLength":8},{"buffer":0,"byteOffset":5488,"byteLength":24},{"buffer":0,"byteOffset":5512,"byteLength":16},{"buffer":0,"byteOffset":5528,"byteLength":64},{"buffer":0,"byteOffset":5592,"byteLength":8},{"buffer":0,"byteOffset":5600,"byteLength":24},{"buffer":0,"byteOffset":5624,"byteLength":16},{"buffer":0,"byteOffset":5640,"byteLength":64},{"buffer":0,"byteOffset":5704,"byteLength":8},{"buffer":0,"byteOffset":5712,"byteLength":24},{"buffer":0,"byteOffset":5736,"byteLength":16},{"buffer":0,"byteOffset":5752,"byteLength":64},{"buffer":0,"byteOffset":5816,"byteLength":8},{"buffer":0,"byteOffset":5824,"byteLength":24}],"buffers":[{"byteLength":5848,"uri":"data:application/octet-stream;base64,"}],"accessors":[{"bufferView":0,"componentType":5126,"count":24,"max":[0.25,1.125,0.125],"min":[-0.25,0.375,-0.125],"type":"VEC3"},{"bufferView":1,"componentType":5126,"count":24,"max":[1,1,1],"min":[-1,-1,-1],"type":"VEC3"},{"bufferView":2,"componentType":5126,"count":24,"max":[0.624755859375,0.99951171875],"min":[0.250244140625,0.50048828125],"type":"VEC2"},{"bufferView":3,"componentType":5123,"count":36,"max":[23],"min":[0],"type":"SCALAR"},{"bufferView":4,"componentType":5126,"count":24,"max":[0.25,1.625,0.25],"min":[-0.25,1.125,-0.25],"type":"VEC3"},{"bufferView":5,"componentType":5126,"count":24,"max":[1,1,1],"min":[-1,-1,-1],"type":"VEC3"},{"bufferView":6,"componentType":5126,"count":24,"max":[0.499755859375,0.49951171875],"min":[0.000244140625,0.00048828125],"type":"VEC2"},{"bufferView":7,"componentType":5123,"count":36,"max":[23],"min":[0],"type":"SCALAR"},{"bufferView":8,"componentType":5126,"count":24,"max":[0.25,0.375,0.375],"min":[0,0,0.125],"type":"VEC3"},{"bufferView":9,"componentType":5126,"count":24,"max":[1,1,1],"min":[-1,-1,-1],"type":"VEC3"},{"bufferView":10,"componentType":5126,"count":24,"max":[0.249755859375,0.81201171875],"min":[0.000244140625,0.50048828125],"type":"VEC2"},{"bufferView":11,"componentType":5123,"count":36,"max":[23],"min":[0],"type":"SCALAR"},{"bufferView":12,"componentType":5126,"count":24,"max":[0,0.375,0.375],"min":[-0.25,0,0.125],"type":"VEC3"},{"bufferView":13,"componentType":5126,"count":24,"max":[1,1,1],"min":[-1,-1,-1],"type":"VEC3"},{"bufferView":14,"componentType":5126,"count":24,"max":[0.249755859375,0.81201171875],"min":[0.000244140625,0.50048828125],"type":"VEC2"},{"bufferView":15,"componentType":5123,"count":36,"max":[23],"min":[0],"type":"SCALAR"},{"bufferView":16,"componentType":5126,"count":24,"max":[0.25,0.375,-0.125],"min":[0,0,-0.375],"type":"VEC3"},{"bufferView":17,"componentType":5126,"count":24,"max":[1,1,1],"min":[-1,-1,-1],"type":"VEC3"},{"bufferView":18,"componentType":5126,"count":24,"max":[0.249755859375,0.81201171875],"min":[0.000244140625,0.50048828125],"type":"VEC2"},{"bufferView":19,"componentType":5123,"count":36,"max":[23],"min":[0],"type":"SCALAR"},{"bufferView":20,"componentType":5126,"count":24,"max":[0,0.375,-0.125],"min":[-0.25,0,-0.375],"type":"VEC3"},{"bufferView":21,"componentType":5126,"count":24,"max":[1,1,1],"min":[-1,-1,-1],"type":"VEC3"},{"bufferView":22,"componentType":5126,"count":24,"max":[0.249755859375,0.81201171875],"min":[0.000244140625,0.50048828125],"type":"VEC2"},{"bufferView":23,"componentType":5123,"count":36,"max":[23],"min":[0],"type":"SCALAR"},{"bufferView":24,"componentType":5126,"count":1,"max":[0],"min":[0],"type":"SCALAR"},{"bufferView":25,"componentType":5126,"count":1,"max":[0,0,0,1],"min":[0,0,0,1],"type":"VEC4"},{"bufferView":26,"componentType":5126,"count":1,"max":[0],"min":[0],"type":"SCALAR"},{"bufferView":27,"componentType":5126,"count":1,"max":[0,0,0],"min":[0,0,0],"type":"VEC3"},{"bufferView":28,"componentType":5126,"count":1,"max":[0],"min":[0],"type":"SCALAR"},{"bufferView":29,"componentType":5126,"count":1,"max":[0,0,0,1],"min":[0,0,0,1],"type":"VEC4"},{"bufferView":30,"componentType":5126,"count":1,"max":[0],"min":[0],"type":"SCALAR"},{"bufferView":31,"componentType":5126,"count":1,"max":[0,1.125,0],"min":[0,1.125,0],"type":"VEC3"},{"bufferView":32,"componentType":5126,"count":1,"max":[0],"min":[0],"type":"SCALAR"},{"bufferView":33,"componentType":5126,"count":1,"max":[0,0,0,1],"min":[0,0,0,1],"type":"VEC4"},{"bufferView":34,"componentType":5126,"count":1,"max":[0],"min":[0],"type":"SCALAR"},{"bufferView":35,"componentType":5126,"count":1,"max":[0.125,0.375,0.125],"min":[0.125,0.375,0.125],"type":"VEC3"},{"bufferView":36,"componentType":5126,"count":1,"max":[0],"min":[0],"type":"SCALAR"},{"bufferView":37,"componentType":5126,"count":1,"max":[0,0,0,1],"min":[0,0,0,1],"type":"VEC4"},{"bufferView":38,"componentType":5126,"count":1,"max":[0],"min":[0],"type":"SCALAR"},{"bufferView":39,"componentType":5126,"count":1,"max":[-0.125,0.375,0.125],"min":[-0.125,0.375,0.125],"type":"VEC3"},{"bufferView":40,"componentType":5126,"count":1,"max":[0],"min":[0],"type":"SCALAR"},{"bufferView":41,"componentType":5126,"count":1,"max":[0,0,0,1],"min":[0,0,0,1],"type":"VEC4"},{"bufferView":42,"componentType":5126,"count":1,"max":[0],"min":[0],"type":"SCALAR"},{"bufferView":43,"componentType":5126,"count":1,"max":[0.125,0.375,-0.125],"min":[0.125,0.375,-0.125],"type":"VEC3"},{"bufferView":44,"componentType":5126,"count":1,"max":[0],"min":[0],"type":"SCALAR"},{"bufferView":45,"componentType":5126,"count":1,"max":[0,0,0,1],"min":[0,0,0,1],"type":"VEC4"},{"bufferView":46,"componentType":5126,"count":1,"max":[0],"min":[0],"type":"SCALAR"},{"bufferView":47,"componentType":5126,"count":1,"max":[-0.125,0.375,-0.125],"min":[-0.125,0.375,-0.125],"type":"VEC3"},{"bufferView":48,"componentType":5126,"count":2,"max":[0.9583333134651184],"min":[0],"type":"SCALAR"},{"bufferView":49,"componentType":5126,"count":2,"max":[0,0,0,1],"min":[0,0,0,1],"type":"VEC4"},{"bufferView":50,"componentType":5126,"count":2,"max":[0.9583333134651184],"min":[0],"type":"SCALAR"},{"bufferView":51,"componentType":5126,"count":2,"max":[0,0,0],"min":[0,0,0],"type":"VEC3"},{"bufferView":52,"componentType":5126,"count":2,"max":[0.9583333134651184],"min":[0],"type":"SCALAR"},{"bufferView":53,"componentType":5126,"count":2,"max":[0,0,0,1],"min":[0,0,0,1],"type":"VEC4"},{"bufferView":54,"componentType":5126,"count":2,"max":[0.9583333134651184],"min":[0],"type":"SCALAR"},{"bufferView":55,"componentType":5126,"count":2,"max":[0,1.125,0],"min":[0,1.125,0],"type":"VEC3"},{"bufferView":56,"componentType":5126,"count":4,"max":[0.9583333134651184],"min":[0],"type":"SCALAR"},{"bufferView":57,"componentType":5126,"count":4,"max":[0.258819043636322,0,0,1],"min":[-0.258819043636322,0,0,0.9659258127212524],"type":"VEC4"},{"bufferView":58,"componentType":5126,"count":2,"max":[0.9583333134651184],"min":[0],"type":"SCALAR"},{"bufferView":59,"componentType":5126,"count":2,"max":[0.125,0.375,0.125],"min":[0.125,0.375,0.125],"type":"VEC3"},{"bufferView":60,"componentType":5126,"count":4,"max":[0.9583333134651184],"min":[0],"type":"SCALAR"},{"bufferView":61,"componentType":5126,"count":4,"max":[0.258819043636322,0,0,1],"min":[-0.258819043636322,0,0,0.9659258127212524],"type":"VEC4"},{"bufferView":62,"componentType":5126,"count":2,"max":[0.9583333134651184],"min":[0],"type":"SCALAR"},{"bufferView":63,"componentType":5126,"count":2,"max":[-0.125,0.375,0.125],"min":[-0.125,0.375,0.125],"type":"VEC3"},{"bufferView":64,"componentType":5126,"count":4,"max":[0.9583333134651184],"min":[0],"type":"SCALAR"},{"bufferView":65,"componentType":5126,"count":4,"max":[0.258819043636322,0,0,1],"min":[-0.258819043636322,0,0,0.9659258127212524],"type":"VEC4"},{"bufferView":66,"componentType":5126,"count":2,"max":[0.9583333134651184],"min":[0],"type":"SCALAR"},{"bufferView":67,"componentType":5126,"count":2,"max":[0.125,0.375,-0.125],"min":[0.125,0.375,-0.125],"type":"VEC3"},{"bufferView":68,"componentType":5126,"count":4,"max":[0.9583333134651184],"min":[0],"type":"SCALAR"},{"bufferView":69,"componentType":5126,"count":4,"max":[0.258819043636322,0,0,1],"min":[-0.258819043636322,0,0,0.9659258127212524],"type":"VEC4"},{"bufferView":70,"componentType":5126,"count":2,"max":[0.9583333134651184],"min":[0],"type":"SCALAR"},{"bufferView":71,"componentType":5126,"count":2,"max":[-0.125,0.375,-0.125],"min":[-0.125,0.375,-0.125],"type":"VEC3"}],"materials":[{"pbrMetallicRoughness":{"metallicFactor":0,"roughnessFactor":1,"baseColorTexture":{"index":0}},"alphaMode":"MASK","alphaCutoff":0.05,"doubleSided":true}],"textures":[{"sampler":0,"source":0,"name":"creeper.png"}],"samplers":[{"magFilter":9728,"minFilter":9728,"wrapS":33071,"wrapT":33071}],"images":[{"mimeType":"image/png","uri":"data:image/png;base64,"}],"meshes":[{"primitives":[{"mode":4,"attributes":{"POSITION":0,"NORMAL":1,"TEXCOORD_0":2},"indices":3,"material":0}]},{"primitives":[{"mode":4,"attributes":{"POSITION":4,"NORMAL":5,"TEXCOORD_0":6},"indices":7,"material":0}]},{"primitives":[{"mode":4,"attributes":{"POSITION":8,"NORMAL":9,"TEXCOORD_0":10},"indices":11,"material":0}]},{"primitives":[{"mode":4,"attributes":{"POSITION":12,"NORMAL":13,"TEXCOORD_0":14},"indices":15,"material":0}]},{"primitives":[{"mode":4,"attributes":{"POSITION":16,"NORMAL":17,"TEXCOORD_0":18},"indices":19,"material":0}]},{"primitives":[{"mode":4,"attributes":{"POSITION":20,"NORMAL":21,"TEXCOORD_0":22},"indices":23,"material":0}]}],"animations":[{"name":"idle","samplers":[{"input":24,"output":25,"interpolation":"LINEAR"},{"input":26,"output":27,"interpolation":"LINEAR"},{"input":28,"output":29,"interpolation":"LINEAR"},{"input":30,"output":31,"interpolation":"LINEAR"},{"input":32,"output":33,"interpolation":"LINEAR"},{"input":34,"output":35,"interpolation":"LINEAR"},{"input":36,"output":37,"interpolation":"LINEAR"},{"input":38,"output":39,"interpolation":"LINEAR"},{"input":40,"output":41,"interpolation":"LINEAR"},{"input":42,"output":43,"interpolation":"LINEAR"},{"input":44,"output":45,"interpolation":"LINEAR"},{"input":46,"output":47,"interpolation":"LINEAR"}],"channels":[{"sampler":0,"target":{"node":11,"path":"rotation"}},{"sampler":1,"target":{"node":11,"path":"translation"}},{"sampler":2,"target":{"node":2,"path":"rotation"}},{"sampler":3,"target":{"node":2,"path":"translation"}},{"sampler":4,"target":{"node":4,"path":"rotation"}},{"sampler":5,"target":{"node":4,"path":"translation"}},{"sampler":6,"target":{"node":6,"path":"rotation"}},{"sampler":7,"target":{"node":6,"path":"translation"}},{"sampler":8,"target":{"node":8,"path":"rotation"}},{"sampler":9,"target":{"node":8,"path":"translation"}},{"sampler":10,"target":{"node":10,"path":"rotation"}},{"sampler":11,"target":{"node":10,"path":"translation"}}]},{"name":"walk","samplers":[{"input":48,"output":49,"interpolation":"LINEAR"},{"input":50,"output":51,"interpolation":"LINEAR"},{"input":52,"output":53,"interpolation":"LINEAR"},{"input":54,"output":55,"interpolation":"LINEAR"},{"input":56,"output":57,"interpolation":"LINEAR"},{"input":58,"output":59,"interpolation":"LINEAR"},{"input":60,"output":61,"interpolation":"LINEAR"},{"input":62,"output":63,"interpolation":"LINEAR"},{"input":64,"output":65,"interpolation":"LINEAR"},{"input":66,"output":67,"interpolation":"LINEAR"},{"input":68,"output":69,"interpolation":"LINEAR"},{"input":70,"output":71,"interpolation":"LINEAR"}],"channels":[{"sampler":0,"target":{"node":11,"path":"rotation"}},{"sampler":1,"target":{"node":11,"path":"translation"}},{"sampler":2,"target":{"node":2,"path":"rotation"}},{"sampler":3,"target":{"node":2,"path":"translation"}},{"sampler":4,"target":{"node":4,"path":"rotation"}},{"sampler":5,"target":{"node":4,"path":"translation"}},{"sampler":6,"target":{"node":6,"path":"rotation"}},{"sampler":7,"target":{"node":6,"path":"translation"}},{"sampler":8,"target":{"node":8,"path":"rotation"}},{"sampler":9,"target":{"node":8,"path":"translation"}},{"sampler":10,"target":{"node":10,"path":"rotation"}},{"sampler":11,"target":{"node":10,"path":"translation"}}]}]}