{"asset":{"version":"2.0","generator":"Blockbench 5.0.7 glTF exporter"},"scenes":[{"nodes":[13],"name":"blockbench_export"}],"scene":0,"nodes":[{"translation":[0,-1.9375,0],"name":"body","mesh":0},{"translation":[0,-1.9375,0],"name":"body","mesh":1},{"translation":[0,-1.9375,0.125],"name":"head","mesh":2},{"translation":[0,-1.9375,0.125],"name":"head","mesh":3},{"translation":[0,0,-0.125],"name":"Head","children":[2,3]},{"translation":[0,-1.9375,0],"name":"arm0","mesh":4},{"name":"arm0","children":[5]},{"translation":[0,-1.9375,0],"name":"arm1","mesh":5},{"name":"arm1","children":[7]},{"translation":[-0.25,-0.8125,0],"name":"leg0","mesh":6},{"translation":[0.25,-1.125,0],"name":"leg0","children":[9]},{"translation":[0.3125,-0.8125,0],"name":"leg1","mesh":7},{"translation":[-0.3125,-1.125,0],"name":"leg1","children":[11]},{"translation":[0,1.9375,0],"name":"body","children":[0,1,4,6,8,10,12]}],"bufferViews":[{"buffer":0,"byteOffset":0,"byteLength":288,"target":34962,"byteStride":12},{"buffer":0,"byteOffset":288,"byteLength":288,"target":34962,"byteStride":12},{"buffer":0,"byteOffset":576,"byteLength":192,"target":34962,"byteStride":8},{"buffer":0,"byteOffset":768,"byteLength":72,"target":34963},{"buffer":0,"byteOffset":840,"byteLength":288,"target":34962,"byteStride":12},{"buffer":0,"byteOffset":1128,"byteLength":288,"target":34962,"byteStride":12},{"buffer":0,"byteOffset":1416,"byteLength":192,"target":34962,"byteStride":8},{"buffer":0,"byteOffset":1608,"byteLength":72,"target":34963},{"buffer":0,"byteOffset":1680,"byteLength":288,"target":34962,"byteStride":12},{"buffer":0,"byteOffset":1968,"byteLength":288,"target":34962,"byteStride":12},{"buffer":0,"byteOffset":2256,"byteLength":192,"target":34962,"byteStride":8},{"buffer":0,"byteOffset":2448,"byteLength":72,"target":34963},{"buffer":0,"byteOffset":2520,"byteLength":288,"target":34962,"byteStride":12},{"buffer":0,"byteOffset":2808,"byteLength":288,"target":34962,"byteStride":12},{"buffer":0,"byteOffset":3096,"byteLength":192,"target":34962,"byteStride":8},{"buffer":0,"byteOffset":3288,"byteLength":72,"target":34963},{"buffer":0,"byteOffset":3360,"byteLength":288,"target":34962,"byteStride":12},{"buffer":0,"byteOffset":3648,"byteLength":288,"target":34962,"byteStride":12},{"buffer":0,"byteOffset":3936,"byteLength":192,"target":34962,"byteStride":8},{"buffer":0,"byteOffset":4128,"byteLength":72,"target":34963},{"buffer":0,"byteOffset":4200,"byteLength":288,"target":34962,"byteStride":12},{"buffer":0,"byteOffset":4488,"byteLength":288,"target":34962,"byteStride":12},{"buffer":0,"byteOffset":4776,"byteLength":192,"target":34962,"byteStride":8},{"buffer":0,"byteOffset":4968,"byteLength":72,"target":34963},{"buffer":0,"byteOffset":5040,"byteLength":288,"target":34962,"byteStride":12},{"buffer":0,"byteOffset":5328,"byteLength":288,"target":34962,"byteStride":12},{"buffer":0,"byteOffset":5616,"byteLength":192,"target":34962,"byteStride":8},{"buffer":0,"byteOffset":5808,"byteLength":72,"target":34963},{"buffer":0,"byteOffset":5880,"byteLength":288,"target":34962,"byteStride":12},{"buffer":0,"byteOffset":6168,"byteLength":288,"target":34962,"byteStride":12},{"buffer":0,"byteOffset":6456,"byteLength":192,"target":34962,"byteStride":8},{"buffer":0,"byteOffset":6648,"byteLength":72,"target":34963},{"buffer":0,"byteOffset":6720,"byteLength":8},{"buffer":0,"byteOffset":6728,"byteLength":32},{"buffer":0,"byteOffset":6760,"byteLength":8},{"buffer":0,"byteOffset":6768,"byteLength":24},{"buffer":0,"byteOffset":6792,"byteLength":16},{"buffer":0,"byteOffset":6808,"byteLength":64},{"buffer":0,"byteOffset":6872,"byteLength":8},{"buffer":0,"byteOffset":6880,"byteLength":24},{"buffer":0,"byteOffset":6904,"byteLength":16},{"buffer":0,"byteOffset":6920,"byteLength":64},{"buffer":0,"byteOffset":6984,"byteLength":16},{"buffer":0,"byteOffset":7000,"byteLength":64},{"buffer":0,"byteOffset":7064,"byteLength":16},{"buffer":0,"byteOffset":7080,"byteLength":64},{"buffer":0,"byteOffset":7144,"byteLength":12},{"buffer":0,"byteOffset":7156,"byteLength":36},{"buffer":0,"byteOffset":7192,"byteLength":16},{"buffer":0,"byteOffset":7208,"byteLength":64},{"buffer":0,"byteOffset":7272,"byteLength":16},{"buffer":0,"byteOffset":7288,"byteLength":48},{"buffer":0,"byteOffset":7336,"byteLength":8},{"buffer":0,"byteOffset":7344,"byteLength":32},{"buffer":0,"byteOffset":7376,"byteLength":8},{"buffer":0,"byteOffset":7384,"byteLength":24},{"buffer":0,"byteOffset":7408,"byteLength":12},{"buffer":0,"byteOffset":7420,"byteLength":48},{"buffer":0,"byteOffset":7468,"byteLength":12},{"buffer":0,"byteOffset":7480,"byteLength":48},{"buffer":0,"byteOffset":7528,"byteLength":8},{"buffer":0,"byteOffset":7536,"byteLength":32},{"buffer":0,"byteOffset":7568,"byteLength":8},{"buffer":0,"byteOffset":7576,"byteLength":24},{"buffer":0,"byteOffset":7600,"byteLength":8},{"buffer":0,"byteOffset":7608,"byteLength":32},{"buffer":0,"byteOffset":7640,"byteLength":8},{"buffer":0,"byteOffset":7648,"byteLength":24}],"buffers":[{"byteLength":7672,"uri":"data:application/octet-stream;base64,"}],"accessors":[{"bufferView":0,"componentType":5126,"count":24,"max":[0.5625,2.0625,0.3125],"min":[-0.5625,1.3125,-0.375],"type":"VEC3"},{"bufferView":1,"componentType":5126,"count":24,"max":[1,1,1],"min":[-1,-1,-1],"type":"VEC3"},{"bufferView":2,"componentType":5126,"count":24,"max":[0.4530029296875,0.4920654296875],"min":[0.0001220703125,0.3126220703125],"type":"VEC2"},{"bufferView":3,"componentType":5123,"count":36,"max":[23],"min":[0],"type":"SCALAR"},{"bufferView":4,"componentType":5126,"count":24,"max":[0.3125,1.34375,0.21875],"min":[-0.3125,0.96875,-0.21875],"type":"VEC3"},{"bufferView":5,"componentType":5126,"count":24,"max":[1,1,1],"min":[-1,-1,-1],"type":"VEC3"},{"bufferView":6,"componentType":5126,"count":24,"max":[0.2342529296875,0.6326904296875],"min":[0.0001220703125,0.5469970703125],"type":"VEC2"},{"bufferView":7,"componentType":5123,"count":36,"max":[23],"min":[0],"type":"SCALAR"},{"bufferView":8,"componentType":5126,"count":24,"max":[0.25,2.6875,0.03125],"min":[-0.25,2.0625,-0.46875],"type":"VEC3"},{"bufferView":9,"componentType":5126,"count":24,"max":[1,1,1],"min":[-1,-1,-1],"type":"VEC3"},{"bufferView":10,"componentType":5126,"count":24,"max":[0.2498779296875,0.1405029296875],"min":[0.0001220703125,0.0001220703125],"type":"VEC2"},{"bufferView":11,"componentType":5123,"count":36,"max":[23],"min":[0],"type":"SCALAR"},{"bufferView":12,"componentType":5126,"count":24,"max":[0.0625,2.25,-0.46875],"min":[-0.0625,2,-0.59375],"type":"VEC3"},{"bufferView":13,"componentType":5126,"count":24,"max":[1,1,1],"min":[-1,-1,-1],"type":"VEC3"},{"bufferView":14,"componentType":5126,"count":24,"max":[0.2498779296875,0.0467529296875],"min":[0.1876220703125,0.0001220703125],"type":"VEC2"},{"bufferView":15,"componentType":5123,"count":36,"max":[23],"min":[0],"type":"SCALAR"},{"bufferView":16,"componentType":5126,"count":24,"max":[0.8125,2.09375,0.1875],"min":[0.5625,0.21875,-0.1875],"type":"VEC3"},{"bufferView":17,"componentType":5126,"count":24,"max":[1,1,1],"min":[-1,-1,-1],"type":"VEC3"},{"bufferView":18,"componentType":5126,"count":24,"max":[0.6248779296875,0.4451904296875],"min":[0.4688720703125,0.1641845703125],"type":"VEC2"},{"bufferView":19,"componentType":5123,"count":36,"max":[23],"min":[0],"type":"SCALAR"},{"bufferView":20,"componentType":5126,"count":24,"max":[-0.5625,2.09375,0.1875],"min":[-0.8125,0.21875,-0.1875],"type":"VEC3"},{"bufferView":21,"componentType":5126,"count":24,"max":[1,1,1],"min":[-1,-1,-1],"type":"VEC3"},{"bufferView":22,"componentType":5126,"count":24,"max":[0.6248779296875,0.7342529296875],"min":[0.4688720703125,0.4532470703125],"type":"VEC2"},{"bufferView":23,"componentType":5123,"count":36,"max":[23],"min":[0],"type":"SCALAR"},{"bufferView":24,"componentType":5126,"count":24,"max":[0.46875,1,0.125],"min":[0.09375,0,-0.1875],"type":"VEC3"},{"bufferView":25,"componentType":5126,"count":24,"max":[1,1,1],"min":[-1,-1,-1],"type":"VEC3"},{"bufferView":26,"componentType":5126,"count":24,"max":[0.4608154296875,0.1639404296875],"min":[0.2891845703125,0.0001220703125],"type":"VEC2"},{"bufferView":27,"componentType":5123,"count":36,"max":[23],"min":[0],"type":"SCALAR"},{"bufferView":28,"componentType":5126,"count":24,"max":[-0.09375,1,0.125],"min":[-0.46875,0,-0.1875],"type":"VEC3"},{"bufferView":29,"componentType":5126,"count":24,"max":[1,1,1],"min":[-1,-1,-1],"type":"VEC3"},{"bufferView":30,"componentType":5126,"count":24,"max":[0.6405029296875,0.1639404296875],"min":[0.4688720703125,0.0001220703125],"type":"VEC2"},{"bufferView":31,"componentType":5123,"count":36,"max":[23],"min":[0],"type":"SCALAR"},{"bufferView":32,"componentType":5126,"count":2,"max":[1],"min":[0],"type":"SCALAR"},{"bufferView":33,"componentType":5126,"count":2,"max":[0,0,0,1],"min":[0,0,0,1],"type":"VEC4"},{"bufferView":34,"componentType":5126,"count":2,"max":[1],"min":[0],"type":"SCALAR"},{"bufferView":35,"componentType":5126,"count":2,"max":[0,1.9375,0],"min":[0,1.9375,0],"type":"VEC3"},{"bufferView":36,"componentType":5126,"count":4,"max":[2.4583332538604736],"min":[0],"type":"SCALAR"},{"bufferView":37,"componentType":5126,"count":4,"max":[0,0,0.026176948100328445,1],"min":[0,0,-0.026176948100328445,0.9996573328971863],"type":"VEC4"},{"bufferView":38,"componentType":5126,"count":2,"max":[2.4583332538604736],"min":[0],"type":"SCALAR"},{"bufferView":39,"componentType":5126,"count":2,"max":[0,1.9375,0],"min":[0,1.9375,0],"type":"VEC3"},{"bufferView":40,"componentType":5126,"count":4,"max":[2.4583332538604736],"min":[0],"type":"SCALAR"},{"bufferView":41,"componentType":5126,"count":4,"max":[0.258819043636322,0,0,1],"min":[-0.258819043636322,0,0,0.9659258127212524],"type":"VEC4"},{"bufferView":42,"componentType":5126,"count":4,"max":[2.4583332538604736],"min":[0],"type":"SCALAR"},{"bufferView":43,"componentType":5126,"count":4,"max":[0.258819043636322,0,0,1],"min":[-0.258819043636322,0,0,0.9659258127212524],"type":"VEC4"},{"bufferView":44,"componentType":5126,"count":4,"max":[2.4583332538604736],"min":[0],"type":"SCALAR"},{"bufferView":45,"componentType":5126,"count":4,"max":[0.13052618503570557,0,0,1],"min":[-0.10886687785387039,0,0,0.9914448857307434],"type":"VEC4"},{"bufferView":46,"componentType":5126,"count":3,"max":[2.4583332538604736],"min":[0],"type":"SCALAR"},{"bufferView":47,"componentType":5126,"count":3,"max":[0.25,-1.125,0],"min":[0.25,-1.125,-0.0625],"type":"VEC3"},{"bufferView":48,"componentType":5126,"count":4,"max":[2.4583332538604736],"min":[0],"type":"SCALAR"},{"bufferView":49,"componentType":5126,"count":4,"max":[0.13052618503570557,0,0,1],"min":[-0.13052618503570557,0,0,0.9914448857307434],"type":"VEC4"},{"bufferView":50,"componentType":5126,"count":4,"max":[2.4583332538604736],"min":[0],"type":"SCALAR"},{"bufferView":51,"componentType":5126,"count":4,"max":[-0.3125,-1.125,0],"min":[-0.3125,-1.125,-0.0625],"type":"VEC3"},{"bufferView":52,"componentType":5126,"count":2,"max":[0.5],"min":[0],"type":"SCALAR"},{"bufferView":53,"componentType":5126,"count":2,"max":[0,0,0,1],"min":[0,0,0,1],"type":"VEC4"},{"bufferView":54,"componentType":5126,"count":2,"max":[0.5],"min":[0],"type":"SCALAR"},{"bufferView":55,"componentType":5126,"count":2,"max":[0,1.9375,0],"min":[0,1.9375,0],"type":"VEC3"},{"bufferView":56,"componentType":5126,"count":3,"max":[0.5],"min":[0],"type":"SCALAR"},{"bufferView":57,"componentType":5126,"count":3,"max":[0.9848077297210693,0,0,1],"min":[0,0,0,0.1736481785774231],"type":"VEC4"},{"bufferView":58,"componentType":5126,"count":3,"max":[0.5],"min":[0],"type":"SCALAR"},{"bufferView":59,"componentType":5126,"count":3,"max":[0.9848077297210693,0,0,1],"min":[0,0,0,0.1736481785774231],"type":"VEC4"},{"bufferView":60,"componentType":5126,"count":2,"max":[0.5],"min":[0],"type":"SCALAR"},{"bufferView":61,"componentType":5126,"count":2,"max":[0,0,0,1],"min":[0,0,0,1],"type":"VEC4"},{"bufferView":62,"componentType":5126,"count":2,"max":[0.5],"min":[0],"type":"SCALAR"},{"bufferView":63,"componentType":5126,"count":2,"max":[0.25,-1.125,0],"min":[0.25,-1.125,0],"type":"VEC3"},{"bufferView":64,"componentType":5126,"count":2,"max":[0.5],"min":[0],"type":"SCALAR"},{"bufferView":65,"componentType":5126,"count":2,"max":[0,0,0,1],"min":[0,0,0,1],"type":"VEC4"},{"bufferView":66,"componentType":5126,"count":2,"max":[0.5],"min":[0],"type":"SCALAR"},{"bufferView":67,"componentType":5126,"count":2,"max":[-0.3125,-1.125,0],"min":[-0.3125,-1.125,0],"type":"VEC3"}],"materials":[{"pbrMetallicRoughness":{"metallicFactor":0,"roughnessFactor":1,"baseColorTexture":{"index":0}},"alphaMode":"MASK","alphaCutoff":0.05,"doubleSided":true}],"textures":[{"sampler":0,"source":0,"name":"iron_golem.png"}],"samplers":[{"magFilter":9728,"minFilter":9728,"wrapS":33071,"wrapT":33071}],"images":[{"mimeType":"image/png","uri":"data:image/png;base64,"}],"meshes":[{"primitives":[{"mode":4,"attributes":{"POSITION":0,"NORMAL":1,"TEXCOORD_0":2},"indices":3,"material":0}]},{"primitives":[{"mode":4,"attributes":{"POSITION":4,"NORMAL":5,"TEXCOORD_0":6},"indices":7,"material":0}]},{"primitives":[{"mode":4,"attributes":{"POSITION":8,"NORMAL":9,"TEXCOORD_0":10},"indices":11,"material":0}]},{"primitives":[{"mode":4,"attributes":{"POSITION":12,"NORMAL":13,"TEXCOORD_0":14},"indices":15,"material":0}]},{"primitives":[{"mode":4,"attributes":{"POSITION":16,"NORMAL":17,"TEXCOORD_0":18},"indices":19,"material":0}]},{"primitives":[{"mode":4,"attributes":{"POSITION":20,"NORMAL":21,"TEXCOORD_0":22},"indices":23,"material":0}]},{"primitives":[{"mode":4,"attributes":{"POSITION":24,"NORMAL":25,"TEXCOORD_0":26},"indices":27,"material":0}]},{"primitives":[{"mode":4,"attributes":{"POSITION":28,"NORMAL":29,"TEXCOORD_0":30},"indices":31,"material":0}]}],"animations":[{"name":"idle","samplers":[{"input":32,"output":33,"interpolation":"LINEAR"},{"input":34,"output":35,"interpolation":"LINEAR"}],"channels":[{"sampler":0,"target":{"node":13,"path":"rotation"}},{"sampler":1,"target":{"node":13,"path":"translation"}}]},{"name":"walk","samplers":[{"input":36,"output":37,"interpolation":"LINEAR"},{"input":38,"output":39,"interpolation":"LINEAR"},{"input":40,"output":41,"interpolation":"LINEAR"},{"input":42,"output":43,"interpolation":"LINEAR"},{"input":44,"output":45,"interpolation":"LINEAR"},{"input":46,"output":47,"interpolation":"LINEAR"},{"input":48,"output":49,"interpolation":"LINEAR"},{"input":50,"output":51,"interpolation":"LINEAR"}],"channels":[{"sampler":0,"target":{"node":13,"path":"rotation"}},{"sampler":1,"target":{"node":13,"path":"translation"}},{"sampler":2,"target":{"node":6,"path":"rotation"}},{"sampler":3,"target":{"node":8,"path":"rotation"}},{"sampler":4,"target":{"node":10,"path":"rotation"}},{"sampler":5,"target":{"node":10,"path":"translation"}},{"sampler":6,"target":{"node":12,"path":"rotation"}},{"sampler":7,"target":{"node":12,"path":"translation"}}]},{"name":"hit","samplers":[{"input":52,"output":53,"interpolation":"LINEAR"},{"input":54,"output":55,"interpolation":"LINEAR"},{"input":56,"output":57,"interpolation":"LINEAR"},{"input":58,"output":59,"interpolation":"LINEAR"},{"input":60,"output":61,"interpolation":"LINEAR"},{"input":62,"output":63,"interpolation":"LINEAR"},{"input":64,"output":65,"interpolation":"LINEAR"},{"input":66,"output":67,"interpolation":"LINEAR"}],"channels":[{"sampler":0,"target":{"node":13,"path":"rotation"}},{"sampler":1,"target":{"node":13,"path":"translation"}},{"sampler":2,"target":{"node":6,"path":"rotation"}},{"sampler":3,"target":{"node":8,"path":"rotation"}},{"sampler":4,"target":{"node":10,"path":"rotation"}},{"sampler":5,"target":{"node":10,"path":"translation"}},{"sampler":6,"target":{"node":12,"path":"rotation"}},{"sampler":7,"target":{"node":12,"path":"translation"}}]}]}