{"asset":{"version":"2.0","generator":"Blockbench 5.0.7 glTF exporter"},"scenes":[{"nodes":[14],"name":"blockbench_export"}],"scene":0,"nodes":[{"translation":[0,-0.75,0.4375],"name":"head","mesh":0},{"translation":[0,-0.75,0.4375],"name":"head","mesh":1},{"translation":[0,0.75,-0.4375],"name":"head","children":[0,1]},{"rotation":[-0.7071067811865475,0,0,0.7071067811865476],"name":"saddle","mesh":2},{"rotation":[-0.7071067811865475,0,0,0.7071067811865476],"name":"body","mesh":3},{"translation":[0,0.6875,0.5625],"name":"body","children":[3,4]},{"translation":[-0.1875,-0.375,-0.375],"name":"leg0","mesh":4},{"translation":[0.1875,0.375,0.375],"name":"leg0","children":[6]},{"translation":[0.1875,-0.375,-0.375],"name":"leg1","mesh":5},{"translation":[-0.1875,0.375,0.375],"name":"leg1","children":[8]},{"translation":[0.1875,-0.375,0.375],"name":"leg3","mesh":6},{"translation":[-0.1875,0.375,-0.375],"name":"leg3","children":[10]},{"translation":[-0.1875,-0.375,0.375],"name":"leg2","mesh":7},{"translation":[0.1875,0.375,-0.375],"name":"leg2","children":[12]},{"name":"root","children":[2,5,7,9,11,13]}],"bufferViews":[{"buffer":0,"byteOffset":0,"byteLength":288,"target":34962,"byteStride":12},{"buffer":0,"byteOffset":288,"byteLength":288,"target":34962,"byteStride":12},{"buffer":0,"byteOffset":576,"byteLength":192,"target":34962,"byteStride":8},{"buffer":0,"byteOffset":768,"byteLength":72,"target":34963},{"buffer":0,"byteOffset":840,"byteLength":288,"target":34962,"byteStride":12},{"buffer":0,"byteOffset":1128,"byteLength":288,"target":34962,"byteStride":12},{"buffer":0,"byteOffset":1416,"byteLength":192,"target":34962,"byteStride":8},{"buffer":0,"byteOffset":1608,"byteLength":72,"target":34963},{"buffer":0,"byteOffset":1680,"byteLength":288,"target":34962,"byteStride":12},{"buffer":0,"byteOffset":1968,"byteLength":288,"target":34962,"byteStride":12},{"buffer":0,"byteOffset":2256,"byteLength":192,"target":34962,"byteStride":8},{"buffer":0,"byteOffset":2448,"byteLength":72,"target":34963},{"buffer":0,"byteOffset":2520,"byteLength":288,"target":34962,"byteStride":12},{"buffer":0,"byteOffset":2808,"byteLength":288,"target":34962,"byteStride":12},{"buffer":0,"byteOffset":3096,"byteLength":192,"target":34962,"byteStride":8},{"buffer":0,"byteOffset":3288,"byteLength":72,"target":34963},{"buffer":0,"byteOffset":3360,"byteLength":288,"target":34962,"byteStride":12},{"buffer":0,"byteOffset":3648,"byteLength":288,"target":34962,"byteStride":12},{"buffer":0,"byteOffset":3936,"byteLength":192,"target":34962,"byteStride":8},{"buffer":0,"byteOffset":4128,"byteLength":72,"target":34963},{"buffer":0,"byteOffset":4200,"byteLength":288,"target":34962,"byteStride":12},{"buffer":0,"byteOffset":4488,"byteLength":288,"target":34962,"byteStride":12},{"buffer":0,"byteOffset":4776,"byteLength":192,"target":34962,"byteStride":8},{"buffer":0,"byteOffset":4968,"byteLength":72,"target":34963},{"buffer":0,"byteOffset":5040,"byteLength":288,"target":34962,"byteStride":12},{"buffer":0,"byteOffset":5328,"byteLength":288,"target":34962,"byteStride":12},{"buffer":0,"byteOffset":5616,"byteLength":192,"target":34962,"byteStride":8},{"buffer":0,"byteOffset":5808,"byteLength":72,"target":34963},{"buffer":0,"byteOffset":5880,"byteLength":288,"target":34962,"byteStride":12},{"buffer":0,"byteOffset":6168,"byteLength":288,"target":34962,"byteStride":12},{"buffer":0,"byteOffset":6456,"byteLength":192,"target":34962,"byteStride":8},{"buffer":0,"byteOffset":6648,"byteLength":72,"target":34963},{"buffer":0,"byteOffset":6720,"byteLength":8},{"buffer":0,"byteOffset":6728,"byteLength":32},{"buffer":0,"byteOffset":6760,"byteLength":8},{"buffer":0,"byteOffset":6768,"byteLength":24},{"buffer":0,"byteOffset":6792,"byteLength":8},{"buffer":0,"byteOffset":6800,"byteLength":32},{"buffer":0,"byteOffset":6832,"byteLength":8},{"buffer":0,"byteOffset":6840,"byteLength":24},{"buffer":0,"byteOffset":6864,"byteLength":8},{"buffer":0,"byteOffset":6872,"byteLength":32},{"buffer":0,"byteOffset":6904,"byteLength":8},{"buffer":0,"byteOffset":6912,"byteLength":24},{"buffer":0,"byteOffset":6936,"byteLength":8},{"buffer":0,"byteOffset":6944,"byteLength":32},{"buffer":0,"byteOffset":6976,"byteLength":8},{"buffer":0,"byteOffset":6984,"byteLength":24},{"buffer":0,"byteOffset":7008,"byteLength":8},{"buffer":0,"byteOffset":7016,"byteLength":32},{"buffer":0,"byteOffset":7048,"byteLength":8},{"buffer":0,"byteOffset":7056,"byteLength":24},{"buffer":0,"byteOffset":7080,"byteLength":8},{"buffer":0,"byteOffset":7088,"byteLength":32},{"buffer":0,"byteOffset":7120,"byteLength":8},{"buffer":0,"byteOffset":7128,"byteLength":24},{"buffer":0,"byteOffset":7152,"byteLength":8},{"buffer":0,"byteOffset":7160,"byteLength":32},{"buffer":0,"byteOffset":7192,"byteLength":8},{"buffer":0,"byteOffset":7200,"byteLength":24},{"buffer":0,"byteOffset":7224,"byteLength":8},{"buffer":0,"byteOffset":7232,"byteLength":32},{"buffer":0,"byteOffset":7264,"byteLength":8},{"buffer":0,"byteOffset":7272,"byteLength":24},{"buffer":0,"byteOffset":7296,"byteLength":16},{"buffer":0,"byteOffset":7312,"byteLength":64},{"buffer":0,"byteOffset":7376,"byteLength":8},{"buffer":0,"byteOffset":7384,"byteLength":24},{"buffer":0,"byteOffset":7408,"byteLength":16},{"buffer":0,"byteOffset":7424,"byteLength":64},{"buffer":0,"byteOffset":7488,"byteLength":8},{"buffer":0,"byteOffset":7496,"byteLength":24},{"buffer":0,"byteOffset":7520,"byteLength":16},{"buffer":0,"byteOffset":7536,"byteLength":64},{"buffer":0,"byteOffset":7600,"byteLength":8},{"buffer":0,"byteOffset":7608,"byteLength":24},{"buffer":0,"byteOffset":7632,"byteLength":16},{"buffer":0,"byteOffset":7648,"byteLength":64},{"buffer":0,"byteOffset":7712,"byteLength":8},{"buffer":0,"byteOffset":7720,"byteLength":24}],"buffers":[{"byteLength":7744,"uri":"data:application/octet-stream;base64,"}],"accessors":[{"bufferView":0,"componentType":5126,"count":24,"max":[0.25,1,-0.4375],"min":[-0.25,0.5,-0.9375],"type":"VEC3"},{"bufferView":1,"componentType":5126,"count":24,"max":[1,1,1],"min":[-1,-1,-1],"type":"VEC3"},{"bufferView":2,"componentType":5126,"count":24,"max":[0.499755859375,0.49951171875],"min":[0.000244140625,0.00048828125],"type":"VEC2"},{"bufferView":3,"componentType":5123,"count":36,"max":[23],"min":[0],"type":"SCALAR"},{"bufferView":4,"componentType":5126,"count":24,"max":[0.125,0.75,-0.9375],"min":[-0.125,0.5625,-1],"type":"VEC3"},{"bufferView":5,"componentType":5126,"count":24,"max":[1,1,1],"min":[-1,-1,-1],"type":"VEC3"},{"bufferView":6,"componentType":5126,"count":24,"max":[0.406005859375,0.62451171875],"min":[0.250244140625,0.50048828125],"type":"VEC2"},{"bufferView":7,"componentType":5123,"count":36,"max":[23],"min":[0],"type":"SCALAR"},{"bufferView":8,"componentType":5126,"count":24,"max":[0.35624998807907104,1.1687500476837158,0.23125000298023224],"min":[-0.35624998807907104,0.08124999701976776,-0.35624998807907104],"type":"VEC3"},{"bufferView":9,"componentType":5126,"count":24,"max":[1,1,1],"min":[-1,-1,-1],"type":"VEC3"},{"bufferView":10,"componentType":5126,"count":24,"max":[0.999755859375,0.99951171875],"min":[0.437744140625,0.25048828125],"type":"VEC2"},{"bufferView":11,"componentType":5123,"count":36,"max":[23],"min":[0],"type":"SCALAR"},{"bufferView":12,"componentType":5126,"count":24,"max":[0.34375,1.15625,0.21875],"min":[-0.34375,0.09375,-0.34375],"type":"VEC3"},{"bufferView":13,"componentType":5126,"count":24,"max":[1,1,1],"min":[-1,-1,-1],"type":"VEC3"},{"bufferView":14,"componentType":5126,"count":24,"max":[0.999755859375,0.99951171875],"min":[0.437744140625,0.25048828125],"type":"VEC2"},{"bufferView":15,"componentType":5123,"count":36,"max":[23],"min":[0],"type":"SCALAR"},{"bufferView":16,"componentType":5126,"count":24,"max":[0.3125,0.375,0.5],"min":[0.0625,0,0.25],"type":"VEC3"},{"bufferView":17,"componentType":5126,"count":24,"max":[1,1,1],"min":[-1,-1,-1],"type":"VEC3"},{"bufferView":18,"componentType":5126,"count":24,"max":[0.249755859375,0.81201171875],"min":[0.000244140625,0.50048828125],"type":"VEC2"},{"bufferView":19,"componentType":5123,"count":36,"max":[23],"min":[0],"type":"SCALAR"},{"bufferView":20,"componentType":5126,"count":24,"max":[-0.0625,0.375,0.5],"min":[-0.3125,0,0.25],"type":"VEC3"},{"bufferView":21,"componentType":5126,"count":24,"max":[1,1,1],"min":[-1,-1,-1],"type":"VEC3"},{"bufferView":22,"componentType":5126,"count":24,"max":[0.249755859375,0.81201171875],"min":[0.000244140625,0.50048828125],"type":"VEC2"},{"bufferView":23,"componentType":5123,"count":36,"max":[23],"min":[0],"type":"SCALAR"},{"bufferView":24,"componentType":5126,"count":24,"max":[-0.0625,0.375,-0.25],"min":[-0.3125,0,-0.5],"type":"VEC3"},{"bufferView":25,"componentType":5126,"count":24,"max":[1,1,1],"min":[-1,-1,-1],"type":"VEC3"},{"bufferView":26,"componentType":5126,"count":24,"max":[0.249755859375,0.81201171875],"min":[0.000244140625,0.50048828125],"type":"VEC2"},{"bufferView":27,"componentType":5123,"count":36,"max":[23],"min":[0],"type":"SCALAR"},{"bufferView":28,"componentType":5126,"count":24,"max":[0.3125,0.375,-0.25],"min":[0.0625,0,-0.5],"type":"VEC3"},{"bufferView":29,"componentType":5126,"count":24,"max":[1,1,1],"min":[-1,-1,-1],"type":"VEC3"},{"bufferView":30,"componentType":5126,"count":24,"max":[0.249755859375,0.81201171875],"min":[0.000244140625,0.50048828125],"type":"VEC2"},{"bufferView":31,"componentType":5123,"count":36,"max":[23],"min":[0],"type":"SCALAR"},{"bufferView":32,"componentType":5126,"count":2,"max":[1.5],"min":[0],"type":"SCALAR"},{"bufferView":33,"componentType":5126,"count":2,"max":[0,0,0,1],"min":[0,0,0,1],"type":"VEC4"},{"bufferView":34,"componentType":5126,"count":2,"max":[1.5],"min":[0],"type":"SCALAR"},{"bufferView":35,"componentType":5126,"count":2,"max":[0,0.75,-0.4375],"min":[0,0.75,-0.4375],"type":"VEC3"},{"bufferView":36,"componentType":5126,"count":2,"max":[1.5],"min":[0],"type":"SCALAR"},{"bufferView":37,"componentType":5126,"count":2,"max":[0,0,0,1],"min":[0,0,0,1],"type":"VEC4"},{"bufferView":38,"componentType":5126,"count":2,"max":[1.5],"min":[0],"type":"SCALAR"},{"bufferView":39,"componentType":5126,"count":2,"max":[0,0.6875,0.5625],"min":[0,0.6875,0.5625],"type":"VEC3"},{"bufferView":40,"componentType":5126,"count":2,"max":[1.5],"min":[0],"type":"SCALAR"},{"bufferView":41,"componentType":5126,"count":2,"max":[0,0,0,1],"min":[0,0,0,1],"type":"VEC4"},{"bufferView":42,"componentType":5126,"count":2,"max":[1.5],"min":[0],"type":"SCALAR"},{"bufferView":43,"componentType":5126,"count":2,"max":[0.1875,0.375,0.375],"min":[0.1875,0.375,0.375],"type":"VEC3"},{"bufferView":44,"componentType":5126,"count":2,"max":[1.5],"min":[0],"type":"SCALAR"},{"bufferView":45,"componentType":5126,"count":2,"max":[0,0,0,1],"min":[0,0,0,1],"type":"VEC4"},{"bufferView":46,"componentType":5126,"count":2,"max":[1.5],"min":[0],"type":"SCALAR"},{"bufferView":47,"componentType":5126,"count":2,"max":[-0.1875,0.375,0.375],"min":[-0.1875,0.375,0.375],"type":"VEC3"},{"bufferView":48,"componentType":5126,"count":2,"max":[1.5],"min":[0],"type":"SCALAR"},{"bufferView":49,"componentType":5126,"count":2,"max":[0,0,0,1],"min":[0,0,0,1],"type":"VEC4"},{"bufferView":50,"componentType":5126,"count":2,"max":[1.5],"min":[0],"type":"SCALAR"},{"bufferView":51,"componentType":5126,"count":2,"max":[-0.1875,0.375,-0.375],"min":[-0.1875,0.375,-0.375],"type":"VEC3"},{"bufferView":52,"componentType":5126,"count":2,"max":[1.5],"min":[0],"type":"SCALAR"},{"bufferView":53,"componentType":5126,"count":2,"max":[0,0,0,1],"min":[0,0,0,1],"type":"VEC4"},{"bufferView":54,"componentType":5126,"count":2,"max":[1.5],"min":[0],"type":"SCALAR"},{"bufferView":55,"componentType":5126,"count":2,"max":[0.1875,0.375,-0.375],"min":[0.1875,0.375,-0.375],"type":"VEC3"},{"bufferView":56,"componentType":5126,"count":2,"max":[0.875],"min":[0],"type":"SCALAR"},{"bufferView":57,"componentType":5126,"count":2,"max":[0,0,0,1],"min":[0,0,0,1],"type":"VEC4"},{"bufferView":58,"componentType":5126,"count":2,"max":[0.875],"min":[0],"type":"SCALAR"},{"bufferView":59,"componentType":5126,"count":2,"max":[0,0.75,-0.4375],"min":[0,0.75,-0.4375],"type":"VEC3"},{"bufferView":60,"componentType":5126,"count":2,"max":[0.875],"min":[0],"type":"SCALAR"},{"bufferView":61,"componentType":5126,"count":2,"max":[0,0,0,1],"min":[0,0,0,1],"type":"VEC4"},{"bufferView":62,"componentType":5126,"count":2,"max":[0.875],"min":[0],"type":"SCALAR"},{"bufferView":63,"componentType":5126,"count":2,"max":[0,0.6875,0.5625],"min":[0,0.6875,0.5625],"type":"VEC3"},{"bufferView":64,"componentType":5126,"count":4,"max":[0.875],"min":[0],"type":"SCALAR"},{"bufferView":65,"componentType":5126,"count":4,"max":[0.258819043636322,0,0,1],"min":[-0.258819043636322,0,0,0.9659258127212524],"type":"VEC4"},{"bufferView":66,"componentType":5126,"count":2,"max":[0.875],"min":[0],"type":"SCALAR"},{"bufferView":67,"componentType":5126,"count":2,"max":[0.1875,0.375,0.375],"min":[0.1875,0.375,0.375],"type":"VEC3"},{"bufferView":68,"componentType":5126,"count":4,"max":[0.875],"min":[0],"type":"SCALAR"},{"bufferView":69,"componentType":5126,"count":4,"max":[0.258819043636322,0,0,1],"min":[-0.2798290252685547,0,0,0.9600498676300049],"type":"VEC4"},{"bufferView":70,"componentType":5126,"count":2,"max":[0.875],"min":[0],"type":"SCALAR"},{"bufferView":71,"componentType":5126,"count":2,"max":[-0.1875,0.375,0.375],"min":[-0.1875,0.375,0.375],"type":"VEC3"},{"bufferView":72,"componentType":5126,"count":4,"max":[0.875],"min":[0],"type":"SCALAR"},{"bufferView":73,"componentType":5126,"count":4,"max":[0.258819043636322,0,0,1],"min":[-0.258819043636322,0,0,0.9659258127212524],"type":"VEC4"},{"bufferView":74,"componentType":5126,"count":2,"max":[0.875],"min":[0],"type":"SCALAR"},{"bufferView":75,"componentType":5126,"count":2,"max":[-0.1875,0.375,-0.375],"min":[-0.1875,0.375,-0.375],"type":"VEC3"},{"bufferView":76,"componentType":5126,"count":4,"max":[0.875],"min":[0],"type":"SCALAR"},{"bufferView":77,"componentType":5126,"count":4,"max":[0.258819043636322,0,0,1],"min":[-0.258819043636322,0,0,0.9659258127212524],"type":"VEC4"},{"bufferView":78,"componentType":5126,"count":2,"max":[0.875],"min":[0],"type":"SCALAR"},{"bufferView":79,"componentType":5126,"count":2,"max":[0.1875,0.375,-0.375],"min":[0.1875,0.375,-0.375],"type":"VEC3"}],"materials":[{"pbrMetallicRoughness":{"metallicFactor":0,"roughnessFactor":1,"baseColorTexture":{"index":0}},"alphaMode":"MASK","alphaCutoff":0.05,"doubleSided":true},{"pbrMetallicRoughness":{"metallicFactor":0,"roughnessFactor":1,"baseColorTexture":{"index":1}},"alphaMode":"MASK","alphaCutoff":0.05,"doubleSided":true}],"textures":[{"sampler":0,"source":0,"name":"pig.png"},{"sampler":1,"source":1,"name":"pig_saddle.png"}],"samplers":[{"magFilter":9728,"minFilter":9728,"wrapS":33071,"wrapT":33071},{"magFilter":9728,"minFilter":9728,"wrapS":33071,"wrapT":33071}],"images":[{"mimeType":"image/png","uri":"data:image/png;base64,"},{"mimeType":"image/png","uri":"data:image/png;base64,"}],"meshes":[{"primitives":[{"mode":4,"attributes":{"POSITION":0,"NORMAL":1,"TEXCOORD_0":2},"indices":3,"material":0}]},{"primitives":[{"mode":4,"attributes":{"POSITION":4,"NORMAL":5,"TEXCOORD_0":6},"indices":7,"material":0}]},{"primitives":[{"mode":4,"attributes":{"POSITION":8,"NORMAL":9,"TEXCOORD_0":10},"indices":11,"material":1}]},{"primitives":[{"mode":4,"attributes":{"POSITION":12,"NORMAL":13,"TEXCOORD_0":14},"indices":15,"material":0}]},{"primitives":[{"mode":4,"attributes":{"POSITION":16,"NORMAL":17,"TEXCOORD_0":18},"indices":19,"material":0}]},{"primitives":[{"mode":4,"attributes":{"POSITION":20,"NORMAL":21,"TEXCOORD_0":22},"indices":23,"material":0}]},{"primitives":[{"mode":4,"attributes":{"POSITION":24,"NORMAL":25,"TEXCOORD_0":26},"indices":27,"material":0}]},{"primitives":[{"mode":4,"attributes":{"POSITION":28,"NORMAL":29,"TEXCOORD_0":30},"indices":31,"material":0}]}],"animations":[{"name":"idle","samplers":[{"input":32,"output":33,"interpolation":"LINEAR"},{"input":34,"output":35,"interpolation":"LINEAR"},{"input":36,"output":37,"interpolation":"LINEAR"},{"input":38,"output":39,"interpolation":"LINEAR"},{"input":40,"output":41,"interpolation":"LINEAR"},{"input":42,"output":43,"interpolation":"LINEAR"},{"input":44,"output":45,"interpolation":"LINEAR"},{"input":46,"output":47,"interpolation":"LINEAR"},{"input":48,"output":49,"interpolation":"LINEAR"},{"input":50,"output":51,"interpolation":"LINEAR"},{"input":52,"output":53,"interpolation":"LINEAR"},{"input":54,"output":55,"interpolation":"LINEAR"}],"channels":[{"sampler":0,"target":{"node":2,"path":"rotation"}},{"sampler":1,"target":{"node":2,"path":"translation"}},{"sampler":2,"target":{"node":5,"path":"rotation"}},{"sampler":3,"target":{"node":5,"path":"translation"}},{"sampler":4,"target":{"node":7,"path":"rotation"}},{"sampler":5,"target":{"node":7,"path":"translation"}},{"sampler":6,"target":{"node":9,"path":"rotation"}},{"sampler":7,"target":{"node":9,"path":"translation"}},{"sampler":8,"target":{"node":11,"path":"rotation"}},{"sampler":9,"target":{"node":11,"path":"translation"}},{"sampler":10,"target":{"node":13,"path":"rotation"}},{"sampler":11,"target":{"node":13,"path":"translation"}}]},{"name":"walk","samplers":[{"input":56,"output":57,"interpolation":"LINEAR"},{"input":58,"output":59,"interpolation":"LINEAR"},{"input":60,"output":61,"interpolation":"LINEAR"},{"input":62,"output":63,"interpolation":"LINEAR"},{"input":64,"output":65,"interpolation":"LINEAR"},{"input":66,"output":67,"interpolation":"LINEAR"},{"input":68,"output":69,"interpolation":"LINEAR"},{"input":70,"output":71,"interpolation":"LINEAR"},{"input":72,"output":73,"interpolation":"LINEAR"},{"input":74,"output":75,"interpolation":"LINEAR"},{"input":76,"output":77,"interpolation":"LINEAR"},{"input":78,"output":79,"interpolation":"LINEAR"}],"channels":[{"sampler":0,"target":{"node":2,"path":"rotation"}},{"sampler":1,"target":{"node":2,"path":"translation"}},{"sampler":2,"target":{"node":5,"path":"rotation"}},{"sampler":3,"target":{"node":5,"path":"translation"}},{"sampler":4,"target":{"node":7,"path":"rotation"}},{"sampler":5,"target":{"node":7,"path":"translation"}},{"sampler":6,"target":{"node":9,"path":"rotation"}},{"sampler":7,"target":{"node":9,"path":"translation"}},{"sampler":8,"target":{"node":11,"path":"rotation"}},{"sampler":9,"target":{"node":11,"path":"translation"}},{"sampler":10,"target":{"node":13,"path":"rotation"}},{"sampler":11,"target":{"node":13,"path":"translation"}}]}]}