{"asset":{"version":"2.0","generator":"Blockbench 5.0.7 glTF exporter"},"scenes":[{"nodes":[4,5,6,9,11,13,16,18,20],"name":"blockbench_export"}],"scene":0,"nodes":[{"rotation":[0.05228614400929896,-0.043559608510925024,0.002282862348496242,0.997679060715675],"translation":[0,0.75,0],"name":"Head"},{"translation":[0,0.75,0],"name":"Body"},{"rotation":[0.08715574274765817,0,0,0.9961946980917455],"translation":[0.3125,0.625,0],"name":"Right Arm"},{"rotation":[-0.10452846326765346,0,0,0.9945218953682733],"translation":[-0.3125,0.625,0],"name":"Left Arm"},{"translation":[0,0.75,0],"name":"Waist","children":[0,1,2,3]},{"rotation":[-0.09583115474787583,-0.0016727390282702394,0.01737205902003089,0.9952445947048578],"translation":[0.11875,0.75,0],"name":"Right Leg"},{"rotation":[0.08714246850588939,-0.0015210774457754552,-0.017385994761764084,0.9960429728140489],"translation":[-0.11875,0.75,0],"name":"Left Leg"},{"translation":[0,-1.5,0],"name":"Body","mesh":0},{"translation":[0,0.75,0],"name":"Body2","children":[7]},{"translation":[0,0.75,0],"name":"waist2","children":[8]},{"translation":[0,-1.5,0],"name":"Head","mesh":1},{"translation":[0,1.5,0],"name":"Head2","children":[10]},{"translation":[-0.3125,-1.375,0],"name":"RightArm","mesh":2},{"translation":[0.3125,1.375,0],"name":"RightArm","children":[12]},{"translation":[0.3125,-1.375,0],"name":"LeftArm","mesh":3},{"translation":[-0.0625,-0.4375,0.0625],"name":"leftItem"},{"translation":[-0.3125,1.375,0],"name":"LeftArm","children":[14,15]},{"translation":[-0.125,-0.75,0],"name":"RightLeg","mesh":4},{"translation":[0.125,0.75,0],"name":"RightLeg","children":[17]},{"translation":[0.125,-0.75,0],"name":"LeftLeg","mesh":5},{"translation":[-0.125,0.75,0],"name":"LeftLeg","children":[19]}],"bufferViews":[{"buffer":0,"byteOffset":0,"byteLength":288,"target":34962,"byteStride":12},{"buffer":0,"byteOffset":288,"byteLength":288,"target":34962,"byteStride":12},{"buffer":0,"byteOffset":576,"byteLength":192,"target":34962,"byteStride":8},{"buffer":0,"byteOffset":768,"byteLength":72,"target":34963},{"buffer":0,"byteOffset":840,"byteLength":288,"target":34962,"byteStride":12},{"buffer":0,"byteOffset":1128,"byteLength":288,"target":34962,"byteStride":12},{"buffer":0,"byteOffset":1416,"byteLength":192,"target":34962,"byteStride":8},{"buffer":0,"byteOffset":1608,"byteLength":72,"target":34963},{"buffer":0,"byteOffset":1680,"byteLength":288,"target":34962,"byteStride":12},{"buffer":0,"byteOffset":1968,"byteLength":288,"target":34962,"byteStride":12},{"buffer":0,"byteOffset":2256,"byteLength":192,"target":34962,"byteStride":8},{"buffer":0,"byteOffset":2448,"byteLength":72,"target":34963},{"buffer":0,"byteOffset":2520,"byteLength":288,"target":34962,"byteStride":12},{"buffer":0,"byteOffset":2808,"byteLength":288,"target":34962,"byteStride":12},{"buffer":0,"byteOffset":3096,"byteLength":192,"target":34962,"byteStride":8},{"buffer":0,"byteOffset":3288,"byteLength":72,"target":34963},{"buffer":0,"byteOffset":3360,"byteLength":288,"target":34962,"byteStride":12},{"buffer":0,"byteOffset":3648,"byteLength":288,"target":34962,"byteStride":12},{"buffer":0,"byteOffset":3936,"byteLength":192,"target":34962,"byteStride":8},{"buffer":0,"byteOffset":4128,"byteLength":72,"target":34963},{"buffer":0,"byteOffset":4200,"byteLength":288,"target":34962,"byteStride":12},{"buffer":0,"byteOffset":4488,"byteLength":288,"target":34962,"byteStride":12},{"buffer":0,"byteOffset":4776,"byteLength":192,"target":34962,"byteStride":8},{"buffer":0,"byteOffset":4968,"byteLength":72,"target":34963},{"buffer":0,"byteOffset":5040,"byteLength":8},{"buffer":0,"byteOffset":5048,"byteLength":32},{"buffer":0,"byteOffset":5080,"byteLength":8},{"buffer":0,"byteOffset":5088,"byteLength":32},{"buffer":0,"byteOffset":5120,"byteLength":8},{"buffer":0,"byteOffset":5128,"byteLength":32},{"buffer":0,"byteOffset":5160,"byteLength":8},{"buffer":0,"byteOffset":5168,"byteLength":32},{"buffer":0,"byteOffset":5200,"byteLength":4},{"buffer":0,"byteOffset":5204,"byteLength":16},{"buffer":0,"byteOffset":5220,"byteLength":8},{"buffer":0,"byteOffset":5228,"byteLength":32},{"buffer":0,"byteOffset":5260,"byteLength":8},{"buffer":0,"byteOffset":5268,"byteLength":32},{"buffer":0,"byteOffset":5300,"byteLength":8},{"buffer":0,"byteOffset":5308,"byteLength":32},{"buffer":0,"byteOffset":5340,"byteLength":8},{"buffer":0,"byteOffset":5348,"byteLength":32},{"buffer":0,"byteOffset":5380,"byteLength":8},{"buffer":0,"byteOffset":5388,"byteLength":32},{"buffer":0,"byteOffset":5420,"byteLength":8},{"buffer":0,"byteOffset":5428,"byteLength":32},{"buffer":0,"byteOffset":5460,"byteLength":8},{"buffer":0,"byteOffset":5468,"byteLength":32},{"buffer":0,"byteOffset":5500,"byteLength":8},{"buffer":0,"byteOffset":5508,"byteLength":32},{"buffer":0,"byteOffset":5540,"byteLength":8},{"buffer":0,"byteOffset":5548,"byteLength":32},{"buffer":0,"byteOffset":5580,"byteLength":8},{"buffer":0,"byteOffset":5588,"byteLength":32},{"buffer":0,"byteOffset":5620,"byteLength":16},{"buffer":0,"byteOffset":5636,"byteLength":64},{"buffer":0,"byteOffset":5700,"byteLength":16},{"buffer":0,"byteOffset":5716,"byteLength":64},{"buffer":0,"byteOffset":5780,"byteLength":8},{"buffer":0,"byteOffset":5788,"byteLength":32},{"buffer":0,"byteOffset":5820,"byteLength":8},{"buffer":0,"byteOffset":5828,"byteLength":32}],"buffers":[{"byteLength":5860,"uri":"data:application/octet-stream;base64,"}],"accessors":[{"bufferView":0,"componentType":5126,"count":24,"max":[0.25,1.5,0.125],"min":[-0.25,0.75,-0.125],"type":"VEC3"},{"bufferView":1,"componentType":5126,"count":24,"max":[1,1,1],"min":[-1,-1,-1],"type":"VEC3"},{"bufferView":2,"componentType":5126,"count":24,"max":[0.624755859375,0.99951171875],"min":[0.250244140625,0.50048828125],"type":"VEC2"},{"bufferView":3,"componentType":5123,"count":36,"max":[23],"min":[0],"type":"SCALAR"},{"bufferView":4,"componentType":5126,"count":24,"max":[0.25,2,0.25],"min":[-0.25,1.5,-0.25],"type":"VEC3"},{"bufferView":5,"componentType":5126,"count":24,"max":[1,1,1],"min":[-1,-1,-1],"type":"VEC3"},{"bufferView":6,"componentType":5126,"count":24,"max":[0.499755859375,0.49951171875],"min":[0.000244140625,0.00048828125],"type":"VEC2"},{"bufferView":7,"componentType":5123,"count":36,"max":[23],"min":[0],"type":"SCALAR"},{"bufferView":8,"componentType":5126,"count":24,"max":[0.375,1.5,0.0625],"min":[0.25,0.75,-0.0625],"type":"VEC3"},{"bufferView":9,"componentType":5126,"count":24,"max":[1,1,1],"min":[-1,-1,-1],"type":"VEC3"},{"bufferView":10,"componentType":5126,"count":24,"max":[0.749755859375,0.93701171875],"min":[0.625244140625,0.50048828125],"type":"VEC2"},{"bufferView":11,"componentType":5123,"count":36,"max":[23],"min":[0],"type":"SCALAR"},{"bufferView":12,"componentType":5126,"count":24,"max":[-0.25,1.5,0.0625],"min":[-0.375,0.75,-0.0625],"type":"VEC3"},{"bufferView":13,"componentType":5126,"count":24,"max":[1,1,1],"min":[-1,-1,-1],"type":"VEC3"},{"bufferView":14,"componentType":5126,"count":24,"max":[0.749755859375,0.93701171875],"min":[0.625244140625,0.50048828125],"type":"VEC2"},{"bufferView":15,"componentType":5123,"count":36,"max":[23],"min":[0],"type":"SCALAR"},{"bufferView":16,"componentType":5126,"count":24,"max":[0.1875,0.75,0.0625],"min":[0.0625,0,-0.0625],"type":"VEC3"},{"bufferView":17,"componentType":5126,"count":24,"max":[1,1,1],"min":[-1,-1,-1],"type":"VEC3"},{"bufferView":18,"componentType":5126,"count":24,"max":[0.124755859375,0.93701171875],"min":[0.000244140625,0.50048828125],"type":"VEC2"},{"bufferView":19,"componentType":5123,"count":36,"max":[23],"min":[0],"type":"SCALAR"},{"bufferView":20,"componentType":5126,"count":24,"max":[-0.0625,0.75,0.0625],"min":[-0.1875,0,-0.0625],"type":"VEC3"},{"bufferView":21,"componentType":5126,"count":24,"max":[1,1,1],"min":[-1,-1,-1],"type":"VEC3"},{"bufferView":22,"componentType":5126,"count":24,"max":[0.124755859375,0.93701171875],"min":[0.000244140625,0.50048828125],"type":"VEC2"},{"bufferView":23,"componentType":5123,"count":36,"max":[23],"min":[0],"type":"SCALAR"},{"bufferView":24,"componentType":5126,"count":2,"max":[1.0416666269302368],"min":[0],"type":"SCALAR"},{"bufferView":25,"componentType":5126,"count":2,"max":[0,0,0,1],"min":[0,0,0,1],"type":"VEC4"},{"bufferView":26,"componentType":5126,"count":2,"max":[1.0416666269302368],"min":[0],"type":"SCALAR"},{"bufferView":27,"componentType":5126,"count":2,"max":[-0.09583115577697754,-0.001672739046625793,0.01737205870449543,0.9952446222305298],"min":[-0.09583115577697754,-0.001672739046625793,0.01737205870449543,0.9952446222305298],"type":"VEC4"},{"bufferView":28,"componentType":5126,"count":2,"max":[1.0416666269302368],"min":[0],"type":"SCALAR"},{"bufferView":29,"componentType":5126,"count":2,"max":[0.0871424674987793,-0.00152107747271657,-0.017385995015501976,0.9960429668426514],"min":[0.0871424674987793,-0.00152107747271657,-0.017385995015501976,0.9960429668426514],"type":"VEC4"},{"bufferView":30,"componentType":5126,"count":2,"max":[1.0416666269302368],"min":[0],"type":"SCALAR"},{"bufferView":31,"componentType":5126,"count":2,"max":[0,0,0,1],"min":[0,0,0,1],"type":"VEC4"},{"bufferView":32,"componentType":5126,"count":1,"max":[0],"min":[0],"type":"SCALAR"},{"bufferView":33,"componentType":5126,"count":1,"max":[0,0,0,1],"min":[0,0,0,1],"type":"VEC4"},{"bufferView":34,"componentType":5126,"count":2,"max":[1.0416666269302368],"min":[0],"type":"SCALAR"},{"bufferView":35,"componentType":5126,"count":2,"max":[0,0,0,1],"min":[0,0,0,1],"type":"VEC4"},{"bufferView":36,"componentType":5126,"count":2,"max":[1.0416666269302368],"min":[0],"type":"SCALAR"},{"bufferView":37,"componentType":5126,"count":2,"max":[0,0,0,1],"min":[0,0,0,1],"type":"VEC4"},{"bufferView":38,"componentType":5126,"count":2,"max":[1.0416666269302368],"min":[0],"type":"SCALAR"},{"bufferView":39,"componentType":5126,"count":2,"max":[0,0,0,1],"min":[0,0,0,1],"type":"VEC4"},{"bufferView":40,"componentType":5126,"count":2,"max":[1.0416666269302368],"min":[0],"type":"SCALAR"},{"bufferView":41,"componentType":5126,"count":2,"max":[0,0,0,1],"min":[0,0,0,1],"type":"VEC4"},{"bufferView":42,"componentType":5126,"count":2,"max":[1.0416666269302368],"min":[0],"type":"SCALAR"},{"bufferView":43,"componentType":5126,"count":2,"max":[0,0,0,1],"min":[0,0,0,1],"type":"VEC4"},{"bufferView":44,"componentType":5126,"count":2,"max":[1],"min":[0],"type":"SCALAR"},{"bufferView":45,"componentType":5126,"count":2,"max":[0,0,0,1],"min":[0,0,0,1],"type":"VEC4"},{"bufferView":46,"componentType":5126,"count":2,"max":[1],"min":[0],"type":"SCALAR"},{"bufferView":47,"componentType":5126,"count":2,"max":[-0.09583115577697754,-0.001672739046625793,0.01737205870449543,0.9952446222305298],"min":[-0.09583115577697754,-0.001672739046625793,0.01737205870449543,0.9952446222305298],"type":"VEC4"},{"bufferView":48,"componentType":5126,"count":2,"max":[1],"min":[0],"type":"SCALAR"},{"bufferView":49,"componentType":5126,"count":2,"max":[0.0871424674987793,-0.00152107747271657,-0.017385995015501976,0.9960429668426514],"min":[0.0871424674987793,-0.00152107747271657,-0.017385995015501976,0.9960429668426514],"type":"VEC4"},{"bufferView":50,"componentType":5126,"count":2,"max":[1],"min":[0],"type":"SCALAR"},{"bufferView":51,"componentType":5126,"count":2,"max":[0,0,0,1],"min":[0,0,0,1],"type":"VEC4"},{"bufferView":52,"componentType":5126,"count":2,"max":[1],"min":[0],"type":"SCALAR"},{"bufferView":53,"componentType":5126,"count":2,"max":[0,0,0,1],"min":[0,0,0,1],"type":"VEC4"},{"bufferView":54,"componentType":5126,"count":4,"max":[1],"min":[0],"type":"SCALAR"},{"bufferView":55,"componentType":5126,"count":4,"max":[0.3214394748210907,0,0,1],"min":[-0.3214394748210907,0,0,0.9469301104545593],"type":"VEC4"},{"bufferView":56,"componentType":5126,"count":4,"max":[1],"min":[0],"type":"SCALAR"},{"bufferView":57,"componentType":5126,"count":4,"max":[0.3214394748210907,0,0,1],"min":[-0.3214394748210907,0,0,0.9469301104545593],"type":"VEC4"},{"bufferView":58,"componentType":5126,"count":2,"max":[0.3333333432674408],"min":[0],"type":"SCALAR"},{"bufferView":59,"componentType":5126,"count":2,"max":[0.7071067690849304,0,0,1],"min":[0,0,0,0.7071067690849304],"type":"VEC4"},{"bufferView":60,"componentType":5126,"count":2,"max":[0.3333333432674408],"min":[0],"type":"SCALAR"},{"bufferView":61,"componentType":5126,"count":2,"max":[0.649809718132019,0,0.2470630258321762,1],"min":[0,-0.23651139438152313,0,0.678800106048584],"type":"VEC4"}],"materials":[{"pbrMetallicRoughness":{"metallicFactor":0,"roughnessFactor":1,"baseColorTexture":{"index":0}},"alphaMode":"MASK","alphaCutoff":0.05,"doubleSided":true}],"textures":[{"sampler":0,"source":0,"name":"skeleton.png"}],"samplers":[{"magFilter":9728,"minFilter":9728,"wrapS":33071,"wrapT":33071}],"images":[{"mimeType":"image/png","uri":"data:image/png;base64,"}],"meshes":[{"primitives":[{"mode":4,"attributes":{"POSITION":0,"NORMAL":1,"TEXCOORD_0":2},"indices":3,"material":0}]},{"primitives":[{"mode":4,"attributes":{"POSITION":4,"NORMAL":5,"TEXCOORD_0":6},"indices":7,"material":0}]},{"primitives":[{"mode":4,"attributes":{"POSITION":8,"NORMAL":9,"TEXCOORD_0":10},"indices":11,"material":0}]},{"primitives":[{"mode":4,"attributes":{"POSITION":12,"NORMAL":13,"TEXCOORD_0":14},"indices":15,"material":0}]},{"primitives":[{"mode":4,"attributes":{"POSITION":16,"NORMAL":17,"TEXCOORD_0":18},"indices":19,"material":0}]},{"primitives":[{"mode":4,"attributes":{"POSITION":20,"NORMAL":21,"TEXCOORD_0":22},"indices":23,"material":0}]}],"animations":[{"name":"idle","samplers":[{"input":24,"output":25,"interpolation":"LINEAR"},{"input":26,"output":27,"interpolation":"LINEAR"},{"input":28,"output":29,"interpolation":"LINEAR"},{"input":30,"output":31,"interpolation":"LINEAR"},{"input":32,"output":33,"interpolation":"LINEAR"},{"input":34,"output":35,"interpolation":"LINEAR"},{"input":36,"output":37,"interpolation":"LINEAR"},{"input":38,"output":39,"interpolation":"LINEAR"},{"input":40,"output":41,"interpolation":"LINEAR"},{"input":42,"output":43,"interpolation":"LINEAR"}],"channels":[{"sampler":0,"target":{"node":4,"path":"rotation"}},{"sampler":1,"target":{"node":5,"path":"rotation"}},{"sampler":2,"target":{"node":6,"path":"rotation"}},{"sampler":3,"target":{"node":9,"path":"rotation"}},{"sampler":4,"target":{"node":11,"path":"rotation"}},{"sampler":5,"target":{"node":13,"path":"rotation"}},{"sampler":6,"target":{"node":16,"path":"rotation"}},{"sampler":7,"target":{"node":15,"path":"rotation"}},{"sampler":8,"target":{"node":18,"path":"rotation"}},{"sampler":9,"target":{"node":20,"path":"rotation"}}]},{"name":"walk","samplers":[{"input":44,"output":45,"interpolation":"LINEAR"},{"input":46,"output":47,"interpolation":"LINEAR"},{"input":48,"output":49,"interpolation":"LINEAR"},{"input":50,"output":51,"interpolation":"LINEAR"},{"input":52,"output":53,"interpolation":"LINEAR"},{"input":54,"output":55,"interpolation":"LINEAR"},{"input":56,"output":57,"interpolation":"LINEAR"}],"channels":[{"sampler":0,"target":{"node":4,"path":"rotation"}},{"sampler":1,"target":{"node":5,"path":"rotation"}},{"sampler":2,"target":{"node":6,"path":"rotation"}},{"sampler":3,"target":{"node":9,"path":"rotation"}},{"sampler":4,"target":{"node":15,"path":"rotation"}},{"sampler":5,"target":{"node":18,"path":"rotation"}},{"sampler":6,"target":{"node":20,"path":"rotation"}}]},{"name":"aim","samplers":[{"input":58,"output":59,"interpolation":"LINEAR"},{"input":60,"output":61,"interpolation":"LINEAR"}],"channels":[{"sampler":0,"target":{"node":13,"path":"rotation"}},{"sampler":1,"target":{"node":16,"path":"rotation"}}]}]}