{"asset":{"version":"2.0","generator":"Blockbench 5.0.7 glTF exporter"},"scenes":[{"nodes":[6,13,21,25,28,32,34,36],"name":"blockbench_export"}],"scene":0,"nodes":[{"translation":[0,0.75,-0.4375],"name":"head"},{"translation":[0,0.6875,0.5625],"name":"body"},{"translation":[0.1875,0.375,0.375],"name":"leg0"},{"translation":[-0.1875,0.375,0.375],"name":"leg1"},{"translation":[-0.1875,0.375,-0.375],"name":"leg3"},{"translation":[0.1875,0.375,-0.375],"name":"leg2"},{"name":"root","children":[0,1,2,3,4,5]},{"translation":[0,0.75,-0.4375],"name":"head2"},{"translation":[0,0.6875,0.5625],"name":"body2"},{"translation":[0.1875,0.375,0.375],"name":"leg7"},{"translation":[-0.1875,0.375,0.375],"name":"leg6"},{"translation":[-0.1875,0.375,-0.375],"name":"leg5"},{"translation":[0.1875,0.375,-0.375],"name":"leg4"},{"name":"root2","children":[7,8,9,10,11,12]},{"name":"helmet"},{"rotation":[0.7071067811865475,0,0,0.7071067811865476],"name":"brim"},{"translation":[0,0.125,0],"name":"nose"},{"translation":[0,1.5,0],"name":"head3","children":[14,15,16]},{"rotation":[0.3826834323650898,0,0,0.9238795325112867],"translation":[0,1.375,0],"name":"arms"},{"translation":[0.125,0.75,0],"name":"RightLeg"},{"translation":[-0.125,0.75,0],"name":"LeftLeg"},{"name":"body3","children":[17,18,19,20]},{"translation":[0,-1.5,0],"name":"head","mesh":0},{"translation":[0,-1.625,0],"name":"nose","mesh":1},{"translation":[0,0.125,0],"name":"nose2","children":[23]},{"translation":[0,1.5,0],"name":"head4","children":[22,24]},{"name":"body","mesh":2},{"name":"body","mesh":3},{"name":"body4","children":[26,27]},{"translation":[0,-1.375,0],"name":"arms","mesh":4},{"translation":[0,-1.375,0],"name":"arms","mesh":5},{"translation":[0,-1.375,0],"name":"arms","mesh":6},{"rotation":[0.3826834323650898,0,0,0.9238795325112867],"translation":[0,1.375,0],"name":"arms2","children":[29,30,31]},{"translation":[-0.125,-0.75,0],"name":"leg0","mesh":7},{"translation":[0.125,0.75,0],"name":"RightLeg2","children":[33]},{"translation":[0.125,-0.75,0],"name":"leg1","mesh":8},{"translation":[-0.125,0.75,0],"name":"LeftLeg2","children":[35]}],"bufferViews":[{"buffer":0,"byteOffset":0,"byteLength":288,"target":34962,"byteStride":12},{"buffer":0,"byteOffset":288,"byteLength":288,"target":34962,"byteStride":12},{"buffer":0,"byteOffset":576,"byteLength":192,"target":34962,"byteStride":8},{"buffer":0,"byteOffset":768,"byteLength":72,"target":34963},{"buffer":0,"byteOffset":840,"byteLength":288,"target":34962,"byteStride":12},{"buffer":0,"byteOffset":1128,"byteLength":288,"target":34962,"byteStride":12},{"buffer":0,"byteOffset":1416,"byteLength":192,"target":34962,"byteStride":8},{"buffer":0,"byteOffset":1608,"byteLength":72,"target":34963},{"buffer":0,"byteOffset":1680,"byteLength":288,"target":34962,"byteStride":12},{"buffer":0,"byteOffset":1968,"byteLength":288,"target":34962,"byteStride":12},{"buffer":0,"byteOffset":2256,"byteLength":192,"target":34962,"byteStride":8},{"buffer":0,"byteOffset":2448,"byteLength":72,"target":34963},{"buffer":0,"byteOffset":2520,"byteLength":288,"target":34962,"byteStride":12},{"buffer":0,"byteOffset":2808,"byteLength":288,"target":34962,"byteStride":12},{"buffer":0,"byteOffset":3096,"byteLength":192,"target":34962,"byteStride":8},{"buffer":0,"byteOffset":3288,"byteLength":72,"target":34963},{"buffer":0,"byteOffset":3360,"byteLength":288,"target":34962,"byteStride":12},{"buffer":0,"byteOffset":3648,"byteLength":288,"target":34962,"byteStride":12},{"buffer":0,"byteOffset":3936,"byteLength":192,"target":34962,"byteStride":8},{"buffer":0,"byteOffset":4128,"byteLength":72,"target":34963},{"buffer":0,"byteOffset":4200,"byteLength":288,"target":34962,"byteStride":12},{"buffer":0,"byteOffset":4488,"byteLength":288,"target":34962,"byteStride":12},{"buffer":0,"byteOffset":4776,"byteLength":192,"target":34962,"byteStride":8},{"buffer":0,"byteOffset":4968,"byteLength":72,"target":34963},{"buffer":0,"byteOffset":5040,"byteLength":288,"target":34962,"byteStride":12},{"buffer":0,"byteOffset":5328,"byteLength":288,"target":34962,"byteStride":12},{"buffer":0,"byteOffset":5616,"byteLength":192,"target":34962,"byteStride":8},{"buffer":0,"byteOffset":5808,"byteLength":72,"target":34963},{"buffer":0,"byteOffset":5880,"byteLength":288,"target":34962,"byteStride":12},{"buffer":0,"byteOffset":6168,"byteLength":288,"target":34962,"byteStride":12},{"buffer":0,"byteOffset":6456,"byteLength":192,"target":34962,"byteStride":8},{"buffer":0,"byteOffset":6648,"byteLength":72,"target":34963},{"buffer":0,"byteOffset":6720,"byteLength":288,"target":34962,"byteStride":12},{"buffer":0,"byteOffset":7008,"byteLength":288,"target":34962,"byteStride":12},{"buffer":0,"byteOffset":7296,"byteLength":192,"target":34962,"byteStride":8},{"buffer":0,"byteOffset":7488,"byteLength":72,"target":34963},{"buffer":0,"byteOffset":7560,"byteLength":8},{"buffer":0,"byteOffset":7568,"byteLength":32},{"buffer":0,"byteOffset":7600,"byteLength":8},{"buffer":0,"byteOffset":7608,"byteLength":24},{"buffer":0,"byteOffset":7632,"byteLength":8},{"buffer":0,"byteOffset":7640,"byteLength":32},{"buffer":0,"byteOffset":7672,"byteLength":8},{"buffer":0,"byteOffset":7680,"byteLength":24},{"buffer":0,"byteOffset":7704,"byteLength":8},{"buffer":0,"byteOffset":7712,"byteLength":32},{"buffer":0,"byteOffset":7744,"byteLength":8},{"buffer":0,"byteOffset":7752,"byteLength":24},{"buffer":0,"byteOffset":7776,"byteLength":8},{"buffer":0,"byteOffset":7784,"byteLength":32},{"buffer":0,"byteOffset":7816,"byteLength":8},{"buffer":0,"byteOffset":7824,"byteLength":32},{"buffer":0,"byteOffset":7856,"byteLength":8},{"buffer":0,"byteOffset":7864,"byteLength":24},{"buffer":0,"byteOffset":7888,"byteLength":8},{"buffer":0,"byteOffset":7896,"byteLength":32},{"buffer":0,"byteOffset":7928,"byteLength":8},{"buffer":0,"byteOffset":7936,"byteLength":24},{"buffer":0,"byteOffset":7960,"byteLength":8},{"buffer":0,"byteOffset":7968,"byteLength":32},{"buffer":0,"byteOffset":8000,"byteLength":8},{"buffer":0,"byteOffset":8008,"byteLength":24},{"buffer":0,"byteOffset":8032,"byteLength":8},{"buffer":0,"byteOffset":8040,"byteLength":32},{"buffer":0,"byteOffset":8072,"byteLength":8},{"buffer":0,"byteOffset":8080,"byteLength":24},{"buffer":0,"byteOffset":8104,"byteLength":8},{"buffer":0,"byteOffset":8112,"byteLength":32},{"buffer":0,"byteOffset":8144,"byteLength":8},{"buffer":0,"byteOffset":8152,"byteLength":24},{"buffer":0,"byteOffset":8176,"byteLength":8},{"buffer":0,"byteOffset":8184,"byteLength":32},{"buffer":0,"byteOffset":8216,"byteLength":8},{"buffer":0,"byteOffset":8224,"byteLength":24},{"buffer":0,"byteOffset":8248,"byteLength":8},{"buffer":0,"byteOffset":8256,"byteLength":32},{"buffer":0,"byteOffset":8288,"byteLength":8},{"buffer":0,"byteOffset":8296,"byteLength":24},{"buffer":0,"byteOffset":8320,"byteLength":8},{"buffer":0,"byteOffset":8328,"byteLength":32},{"buffer":0,"byteOffset":8360,"byteLength":8},{"buffer":0,"byteOffset":8368,"byteLength":32},{"buffer":0,"byteOffset":8400,"byteLength":8},{"buffer":0,"byteOffset":8408,"byteLength":24},{"buffer":0,"byteOffset":8432,"byteLength":8},{"buffer":0,"byteOffset":8440,"byteLength":32},{"buffer":0,"byteOffset":8472,"byteLength":8},{"buffer":0,"byteOffset":8480,"byteLength":24},{"buffer":0,"byteOffset":8504,"byteLength":16},{"buffer":0,"byteOffset":8520,"byteLength":64},{"buffer":0,"byteOffset":8584,"byteLength":8},{"buffer":0,"byteOffset":8592,"byteLength":24},{"buffer":0,"byteOffset":8616,"byteLength":16},{"buffer":0,"byteOffset":8632,"byteLength":64},{"buffer":0,"byteOffset":8696,"byteLength":8},{"buffer":0,"byteOffset":8704,"byteLength":24}],"buffers":[{"byteLength":8728,"uri":"data:application/octet-stream;base64,"}],"accessors":[{"bufferView":0,"componentType":5126,"count":24,"max":[0.25,2.125,0.25],"min":[-0.25,1.5,-0.25],"type":"VEC3"},{"bufferView":1,"componentType":5126,"count":24,"max":[1,1,1],"min":[-1,-1,-1],"type":"VEC3"},{"bufferView":2,"componentType":5126,"count":24,"max":[0.499755859375,0.281005859375],"min":[0.000244140625,0.000244140625],"type":"VEC2"},{"bufferView":3,"componentType":5123,"count":36,"max":[23],"min":[0],"type":"SCALAR"},{"bufferView":4,"componentType":5126,"count":24,"max":[0.0625,1.6875,-0.25],"min":[-0.0625,1.4375,-0.375],"type":"VEC3"},{"bufferView":5,"componentType":5126,"count":24,"max":[1,1,1],"min":[-1,-1,-1],"type":"VEC3"},{"bufferView":6,"componentType":5126,"count":24,"max":[0.499755859375,0.093505859375],"min":[0.375244140625,0.000244140625],"type":"VEC2"},{"bufferView":7,"componentType":5123,"count":36,"max":[23],"min":[0],"type":"SCALAR"},{"bufferView":8,"componentType":5126,"count":24,"max":[0.25,1.5,0.1875],"min":[-0.25,0.75,-0.1875],"type":"VEC3"},{"bufferView":9,"componentType":5126,"count":24,"max":[1,1,1],"min":[-1,-1,-1],"type":"VEC3"},{"bufferView":10,"componentType":5126,"count":24,"max":[0.687255859375,0.593505859375],"min":[0.250244140625,0.312744140625],"type":"VEC2"},{"bufferView":11,"componentType":5123,"count":36,"max":[23],"min":[0],"type":"SCALAR"},{"bufferView":12,"componentType":5126,"count":24,"max":[0.28125,1.53125,0.21875],"min":[-0.28125,0.34375,-0.21875],"type":"VEC3"},{"bufferView":13,"componentType":5126,"count":24,"max":[1,1,1],"min":[-1,-1,-1],"type":"VEC3"},{"bufferView":14,"componentType":5126,"count":24,"max":[0.437255859375,0.968505859375],"min":[0.000244140625,0.593994140625],"type":"VEC2"},{"bufferView":15,"componentType":5123,"count":36,"max":[23],"min":[0],"type":"SCALAR"},{"bufferView":16,"componentType":5126,"count":24,"max":[0.25,1.25,0.125],"min":[-0.25,1,-0.125],"type":"VEC3"},{"bufferView":17,"componentType":5126,"count":24,"max":[1,1,1],"min":[-1,-1,-1],"type":"VEC3"},{"bufferView":18,"componentType":5126,"count":24,"max":[0.999755859375,0.718505859375],"min":[0.625244140625,0.593994140625],"type":"VEC2"},{"bufferView":19,"componentType":5123,"count":36,"max":[23],"min":[0],"type":"SCALAR"},{"bufferView":20,"componentType":5126,"count":24,"max":[0.5,1.5,0.125],"min":[0.25,1,-0.125],"type":"VEC3"},{"bufferView":21,"componentType":5126,"count":24,"max":[1,1,1],"min":[-1,-1,-1],"type":"VEC3"},{"bufferView":22,"componentType":5126,"count":24,"max":[0.937255859375,0.531005859375],"min":[0.687744140625,0.343994140625],"type":"VEC2"},{"bufferView":23,"componentType":5123,"count":36,"max":[23],"min":[0],"type":"SCALAR"},{"bufferView":24,"componentType":5126,"count":24,"max":[-0.25,1.5,0.125],"min":[-0.5,1,-0.125],"type":"VEC3"},{"bufferView":25,"componentType":5126,"count":24,"max":[1,1,1],"min":[-1,-1,-1],"type":"VEC3"},{"bufferView":26,"componentType":5126,"count":24,"max":[0.937255859375,0.531005859375],"min":[0.687744140625,0.343994140625],"type":"VEC2"},{"bufferView":27,"componentType":5123,"count":36,"max":[23],"min":[0],"type":"SCALAR"},{"bufferView":28,"componentType":5126,"count":24,"max":[0.25,0.75,0.125],"min":[0,0,-0.125],"type":"VEC3"},{"bufferView":29,"componentType":5126,"count":24,"max":[1,1,1],"min":[-1,-1,-1],"type":"VEC3"},{"bufferView":30,"componentType":5126,"count":24,"max":[0.249755859375,0.593505859375],"min":[0.000244140625,0.343994140625],"type":"VEC2"},{"bufferView":31,"componentType":5123,"count":36,"max":[23],"min":[0],"type":"SCALAR"},{"bufferView":32,"componentType":5126,"count":24,"max":[0,0.75,0.125],"min":[-0.25,0,-0.125],"type":"VEC3"},{"bufferView":33,"componentType":5126,"count":24,"max":[1,1,1],"min":[-1,-1,-1],"type":"VEC3"},{"bufferView":34,"componentType":5126,"count":24,"max":[0.249755859375,0.593505859375],"min":[0.000244140625,0.343994140625],"type":"VEC2"},{"bufferView":35,"componentType":5123,"count":36,"max":[23],"min":[0],"type":"SCALAR"},{"bufferView":36,"componentType":5126,"count":2,"max":[1.5416666269302368],"min":[0],"type":"SCALAR"},{"bufferView":37,"componentType":5126,"count":2,"max":[0,0,0,1],"min":[0,0,0,1],"type":"VEC4"},{"bufferView":38,"componentType":5126,"count":2,"max":[1.5416666269302368],"min":[0],"type":"SCALAR"},{"bufferView":39,"componentType":5126,"count":2,"max":[0,0,0],"min":[0,0,0],"type":"VEC3"},{"bufferView":40,"componentType":5126,"count":2,"max":[1.5416666269302368],"min":[0],"type":"SCALAR"},{"bufferView":41,"componentType":5126,"count":2,"max":[0,0,0,1],"min":[0,0,0,1],"type":"VEC4"},{"bufferView":42,"componentType":5126,"count":2,"max":[1.5416666269302368],"min":[0],"type":"SCALAR"},{"bufferView":43,"componentType":5126,"count":2,"max":[0,0,0],"min":[0,0,0],"type":"VEC3"},{"bufferView":44,"componentType":5126,"count":2,"max":[1.5416666269302368],"min":[0],"type":"SCALAR"},{"bufferView":45,"componentType":5126,"count":2,"max":[0,0,0,1],"min":[0,0,0,1],"type":"VEC4"},{"bufferView":46,"componentType":5126,"count":2,"max":[1.5416666269302368],"min":[0],"type":"SCALAR"},{"bufferView":47,"componentType":5126,"count":2,"max":[0,0,0],"min":[0,0,0],"type":"VEC3"},{"bufferView":48,"componentType":5126,"count":2,"max":[1.5416666269302368],"min":[0],"type":"SCALAR"},{"bufferView":49,"componentType":5126,"count":2,"max":[0,0,0,1],"min":[0,0,0,1],"type":"VEC4"},{"bufferView":50,"componentType":5126,"count":2,"max":[1.5416666269302368],"min":[0],"type":"SCALAR"},{"bufferView":51,"componentType":5126,"count":2,"max":[0,0,0,1],"min":[0,0,0,1],"type":"VEC4"},{"bufferView":52,"componentType":5126,"count":2,"max":[1.5416666269302368],"min":[0],"type":"SCALAR"},{"bufferView":53,"componentType":5126,"count":2,"max":[0,0,0],"min":[0,0,0],"type":"VEC3"},{"bufferView":54,"componentType":5126,"count":2,"max":[1.5416666269302368],"min":[0],"type":"SCALAR"},{"bufferView":55,"componentType":5126,"count":2,"max":[0.3826834261417389,0,0,0.9238795042037964],"min":[0.3826834261417389,0,0,0.9238795042037964],"type":"VEC4"},{"bufferView":56,"componentType":5126,"count":2,"max":[1.5416666269302368],"min":[0],"type":"SCALAR"},{"bufferView":57,"componentType":5126,"count":2,"max":[0,1.375,0],"min":[0,1.375,0],"type":"VEC3"},{"bufferView":58,"componentType":5126,"count":2,"max":[1.5416666269302368],"min":[0],"type":"SCALAR"},{"bufferView":59,"componentType":5126,"count":2,"max":[0,0,0,1],"min":[0,0,0,1],"type":"VEC4"},{"bufferView":60,"componentType":5126,"count":2,"max":[1.5416666269302368],"min":[0],"type":"SCALAR"},{"bufferView":61,"componentType":5126,"count":2,"max":[0.125,0.75,0],"min":[0.125,0.75,0],"type":"VEC3"},{"bufferView":62,"componentType":5126,"count":2,"max":[1.5416666269302368],"min":[0],"type":"SCALAR"},{"bufferView":63,"componentType":5126,"count":2,"max":[0,0,0,1],"min":[0,0,0,1],"type":"VEC4"},{"bufferView":64,"componentType":5126,"count":2,"max":[1.5416666269302368],"min":[0],"type":"SCALAR"},{"bufferView":65,"componentType":5126,"count":2,"max":[-0.125,0.75,0],"min":[-0.125,0.75,0],"type":"VEC3"},{"bufferView":66,"componentType":5126,"count":2,"max":[0.7916666865348816],"min":[0],"type":"SCALAR"},{"bufferView":67,"componentType":5126,"count":2,"max":[0,0,0,1],"min":[0,0,0,1],"type":"VEC4"},{"bufferView":68,"componentType":5126,"count":2,"max":[0.7916666865348816],"min":[0],"type":"SCALAR"},{"bufferView":69,"componentType":5126,"count":2,"max":[0,0,0],"min":[0,0,0],"type":"VEC3"},{"bufferView":70,"componentType":5126,"count":2,"max":[0.7916666865348816],"min":[0],"type":"SCALAR"},{"bufferView":71,"componentType":5126,"count":2,"max":[0,0,0,1],"min":[0,0,0,1],"type":"VEC4"},{"bufferView":72,"componentType":5126,"count":2,"max":[0.7916666865348816],"min":[0],"type":"SCALAR"},{"bufferView":73,"componentType":5126,"count":2,"max":[0,0,0],"min":[0,0,0],"type":"VEC3"},{"bufferView":74,"componentType":5126,"count":2,"max":[0.7916666865348816],"min":[0],"type":"SCALAR"},{"bufferView":75,"componentType":5126,"count":2,"max":[0,0,0,1],"min":[0,0,0,1],"type":"VEC4"},{"bufferView":76,"componentType":5126,"count":2,"max":[0.7916666865348816],"min":[0],"type":"SCALAR"},{"bufferView":77,"componentType":5126,"count":2,"max":[0,0,0],"min":[0,0,0],"type":"VEC3"},{"bufferView":78,"componentType":5126,"count":2,"max":[0.7916666865348816],"min":[0],"type":"SCALAR"},{"bufferView":79,"componentType":5126,"count":2,"max":[0,0,0,1],"min":[0,0,0,1],"type":"VEC4"},{"bufferView":80,"componentType":5126,"count":2,"max":[0.7916666865348816],"min":[0],"type":"SCALAR"},{"bufferView":81,"componentType":5126,"count":2,"max":[0,0,0,1],"min":[0,0,0,1],"type":"VEC4"},{"bufferView":82,"componentType":5126,"count":2,"max":[0.7916666865348816],"min":[0],"type":"SCALAR"},{"bufferView":83,"componentType":5126,"count":2,"max":[0,0,0],"min":[0,0,0],"type":"VEC3"},{"bufferView":84,"componentType":5126,"count":2,"max":[0.7916666865348816],"min":[0],"type":"SCALAR"},{"bufferView":85,"componentType":5126,"count":2,"max":[0.3826834261417389,0,0,0.9238795042037964],"min":[0.3826834261417389,0,0,0.9238795042037964],"type":"VEC4"},{"bufferView":86,"componentType":5126,"count":2,"max":[0.7916666865348816],"min":[0],"type":"SCALAR"},{"bufferView":87,"componentType":5126,"count":2,"max":[0,1.375,0],"min":[0,1.375,0],"type":"VEC3"},{"bufferView":88,"componentType":5126,"count":4,"max":[0.7916666865348816],"min":[0],"type":"SCALAR"},{"bufferView":89,"componentType":5126,"count":4,"max":[0.3214394748210907,0,0,1],"min":[-0.3214394748210907,0,0,0.9469301104545593],"type":"VEC4"},{"bufferView":90,"componentType":5126,"count":2,"max":[0.7916666865348816],"min":[0],"type":"SCALAR"},{"bufferView":91,"componentType":5126,"count":2,"max":[0.125,0.75,0],"min":[0.125,0.75,0],"type":"VEC3"},{"bufferView":92,"componentType":5126,"count":4,"max":[0.7916666865348816],"min":[0],"type":"SCALAR"},{"bufferView":93,"componentType":5126,"count":4,"max":[0.3214394748210907,0,0,1],"min":[-0.3214394748210907,0,0,0.9469301104545593],"type":"VEC4"},{"bufferView":94,"componentType":5126,"count":2,"max":[0.7916666865348816],"min":[0],"type":"SCALAR"},{"bufferView":95,"componentType":5126,"count":2,"max":[-0.125,0.75,0],"min":[-0.125,0.75,0],"type":"VEC3"}],"materials":[{"pbrMetallicRoughness":{"metallicFactor":0,"roughnessFactor":1,"baseColorTexture":{"index":0}},"alphaMode":"MASK","alphaCutoff":0.05,"doubleSided":true}],"textures":[{"sampler":0,"source":0,"name":"villager.png"}],"samplers":[{"magFilter":9728,"minFilter":9728,"wrapS":33071,"wrapT":33071}],"images":[{"mimeType":"image/png","uri":"data:image/png;base64,"}],"meshes":[{"primitives":[{"mode":4,"attributes":{"POSITION":0,"NORMAL":1,"TEXCOORD_0":2},"indices":3,"material":0}]},{"primitives":[{"mode":4,"attributes":{"POSITION":4,"NORMAL":5,"TEXCOORD_0":6},"indices":7,"material":0}]},{"primitives":[{"mode":4,"attributes":{"POSITION":8,"NORMAL":9,"TEXCOORD_0":10},"indices":11,"material":0}]},{"primitives":[{"mode":4,"attributes":{"POSITION":12,"NORMAL":13,"TEXCOORD_0":14},"indices":15,"material":0}]},{"primitives":[{"mode":4,"attributes":{"POSITION":16,"NORMAL":17,"TEXCOORD_0":18},"indices":19,"material":0}]},{"primitives":[{"mode":4,"attributes":{"POSITION":20,"NORMAL":21,"TEXCOORD_0":22},"indices":23,"material":0}]},{"primitives":[{"mode":4,"attributes":{"POSITION":24,"NORMAL":25,"TEXCOORD_0":26},"indices":27,"material":0}]},{"primitives":[{"mode":4,"attributes":{"POSITION":28,"NORMAL":29,"TEXCOORD_0":30},"indices":31,"material":0}]},{"primitives":[{"mode":4,"attributes":{"POSITION":32,"NORMAL":33,"TEXCOORD_0":34},"indices":35,"material":0}]}],"animations":[{"name":"idle","samplers":[{"input":36,"output":37,"interpolation":"LINEAR"},{"input":38,"output":39,"interpolation":"LINEAR"},{"input":40,"output":41,"interpolation":"LINEAR"},{"input":42,"output":43,"interpolation":"LINEAR"},{"input":44,"output":45,"interpolation":"LINEAR"},{"input":46,"output":47,"interpolation":"LINEAR"},{"input":48,"output":49,"interpolation":"LINEAR"},{"input":50,"output":51,"interpolation":"LINEAR"},{"input":52,"output":53,"interpolation":"LINEAR"},{"input":54,"output":55,"interpolation":"LINEAR"},{"input":56,"output":57,"interpolation":"LINEAR"},{"input":58,"output":59,"interpolation":"LINEAR"},{"input":60,"output":61,"interpolation":"LINEAR"},{"input":62,"output":63,"interpolation":"LINEAR"},{"input":64,"output":65,"interpolation":"LINEAR"}],"channels":[{"sampler":0,"target":{"node":6,"path":"rotation"}},{"sampler":1,"target":{"node":6,"path":"translation"}},{"sampler":2,"target":{"node":13,"path":"rotation"}},{"sampler":3,"target":{"node":13,"path":"translation"}},{"sampler":4,"target":{"node":21,"path":"rotation"}},{"sampler":5,"target":{"node":21,"path":"translation"}},{"sampler":6,"target":{"node":25,"path":"rotation"}},{"sampler":7,"target":{"node":28,"path":"rotation"}},{"sampler":8,"target":{"node":28,"path":"translation"}},{"sampler":9,"target":{"node":32,"path":"rotation"}},{"sampler":10,"target":{"node":32,"path":"translation"}},{"sampler":11,"target":{"node":34,"path":"rotation"}},{"sampler":12,"target":{"node":34,"path":"translation"}},{"sampler":13,"target":{"node":36,"path":"rotation"}},{"sampler":14,"target":{"node":36,"path":"translation"}}]},{"name":"walk","samplers":[{"input":66,"output":67,"interpolation":"LINEAR"},{"input":68,"output":69,"interpolation":"LINEAR"},{"input":70,"output":71,"interpolation":"LINEAR"},{"input":72,"output":73,"interpolation":"LINEAR"},{"input":74,"output":75,"interpolation":"LINEAR"},{"input":76,"output":77,"interpolation":"LINEAR"},{"input":78,"output":79,"interpolation":"LINEAR"},{"input":80,"output":81,"interpolation":"LINEAR"},{"input":82,"output":83,"interpolation":"LINEAR"},{"input":84,"output":85,"interpolation":"LINEAR"},{"input":86,"output":87,"interpolation":"LINEAR"},{"input":88,"output":89,"interpolation":"LINEAR"},{"input":90,"output":91,"interpolation":"LINEAR"},{"input":92,"output":93,"interpolation":"LINEAR"},{"input":94,"output":95,"interpolation":"LINEAR"}],"channels":[{"sampler":0,"target":{"node":6,"path":"rotation"}},{"sampler":1,"target":{"node":6,"path":"translation"}},{"sampler":2,"target":{"node":13,"path":"rotation"}},{"sampler":3,"target":{"node":13,"path":"translation"}},{"sampler":4,"target":{"node":21,"path":"rotation"}},{"sampler":5,"target":{"node":21,"path":"translation"}},{"sampler":6,"target":{"node":25,"path":"rotation"}},{"sampler":7,"target":{"node":28,"path":"rotation"}},{"sampler":8,"target":{"node":28,"path":"translation"}},{"sampler":9,"target":{"node":32,"path":"rotation"}},{"sampler":10,"target":{"node":32,"path":"translation"}},{"sampler":11,"target":{"node":34,"path":"rotation"}},{"sampler":12,"target":{"node":34,"path":"translation"}},{"sampler":13,"target":{"node":36,"path":"rotation"}},{"sampler":14,"target":{"node":36,"path":"translation"}}]}]}