{"asset":{"version":"2.0","generator":"Blockbench 5.0.7 glTF exporter"},"scenes":[{"nodes":[1,4,6,8,10,12],"name":"blockbench_export"}],"scene":0,"nodes":[{"translation":[0,-1.5,0],"name":"Body","mesh":0},{"translation":[0,1.5,0],"name":"Body","children":[0]},{"translation":[0,-1.5,0],"name":"Hat Layer","mesh":1},{"rotation":[0,-0.10886687485196457,0,0.9940563382223196],"translation":[-3.0357660829594124e-18,0.25000000000000044,0],"name":"Head","mesh":2},{"rotation":[-0.02607733711652492,0.08712587665138179,0.002281471372639738,0.9958533270492272],"translation":[0,1.5,0],"name":"Head","children":[2,3]},{"translation":[0.06250000000000006,-0.24999999999999978,2.2204460492503136e-16],"name":"RightArm","mesh":3},{"rotation":[0.6421758183121904,0.0334143893034698,-0.028038001740555558,0.7653153385506796],"translation":[0.3125,1.375,0],"name":"RightArm","children":[5]},{"translation":[-0.06250000000000006,-0.2500000000000002,0],"name":"LeftArm","mesh":4},{"rotation":[0.6081820230187928,-0.034605586667746616,0.02655380058500688,0.7925982437039849],"translation":[-0.3125,1.375,0],"name":"LeftArm","children":[7]},{"translation":[-2.7755575615628914e-17,-1.1102230246251565e-16,0],"name":"RightLeg","mesh":5},{"rotation":[0.21623361138472555,0.009440963361569887,0.042585433717795204,0.9753667896506382],"translation":[0.11875,0.75,0],"name":"RightLeg","children":[9]},{"translation":[-0.0062500000000000056,-0.0625,0],"name":"LeftLeg","mesh":6},{"rotation":[-0.17364817766693033,0,0,0.984807753012208],"translation":[-0.11875,0.75,0],"name":"LeftLeg","children":[11]}],"bufferViews":[{"buffer":0,"byteOffset":0,"byteLength":288,"target":34962,"byteStride":12},{"buffer":0,"byteOffset":288,"byteLength":288,"target":34962,"byteStride":12},{"buffer":0,"byteOffset":576,"byteLength":192,"target":34962,"byteStride":8},{"buffer":0,"byteOffset":768,"byteLength":72,"target":34963},{"buffer":0,"byteOffset":840,"byteLength":288,"target":34962,"byteStride":12},{"buffer":0,"byteOffset":1128,"byteLength":288,"target":34962,"byteStride":12},{"buffer":0,"byteOffset":1416,"byteLength":192,"target":34962,"byteStride":8},{"buffer":0,"byteOffset":1608,"byteLength":72,"target":34963},{"buffer":0,"byteOffset":1680,"byteLength":288,"target":34962,"byteStride":12},{"buffer":0,"byteOffset":1968,"byteLength":288,"target":34962,"byteStride":12},{"buffer":0,"byteOffset":2256,"byteLength":192,"target":34962,"byteStride":8},{"buffer":0,"byteOffset":2448,"byteLength":72,"target":34963},{"buffer":0,"byteOffset":2520,"byteLength":288,"target":34962,"byteStride":12},{"buffer":0,"byteOffset":2808,"byteLength":288,"target":34962,"byteStride":12},{"buffer":0,"byteOffset":3096,"byteLength":192,"target":34962,"byteStride":8},{"buffer":0,"byteOffset":3288,"byteLength":72,"target":34963},{"buffer":0,"byteOffset":3360,"byteLength":288,"target":34962,"byteStride":12},{"buffer":0,"byteOffset":3648,"byteLength":288,"target":34962,"byteStride":12},{"buffer":0,"byteOffset":3936,"byteLength":192,"target":34962,"byteStride":8},{"buffer":0,"byteOffset":4128,"byteLength":72,"target":34963},{"buffer":0,"byteOffset":4200,"byteLength":288,"target":34962,"byteStride":12},{"buffer":0,"byteOffset":4488,"byteLength":288,"target":34962,"byteStride":12},{"buffer":0,"byteOffset":4776,"byteLength":192,"target":34962,"byteStride":8},{"buffer":0,"byteOffset":4968,"byteLength":72,"target":34963},{"buffer":0,"byteOffset":5040,"byteLength":288,"target":34962,"byteStride":12},{"buffer":0,"byteOffset":5328,"byteLength":288,"target":34962,"byteStride":12},{"buffer":0,"byteOffset":5616,"byteLength":192,"target":34962,"byteStride":8},{"buffer":0,"byteOffset":5808,"byteLength":72,"target":34963},{"buffer":0,"byteOffset":5880,"byteLength":8},{"buffer":0,"byteOffset":5888,"byteLength":32},{"buffer":0,"byteOffset":5920,"byteLength":16},{"buffer":0,"byteOffset":5936,"byteLength":64},{"buffer":0,"byteOffset":6000,"byteLength":8},{"buffer":0,"byteOffset":6008,"byteLength":24},{"buffer":0,"byteOffset":6032,"byteLength":16},{"buffer":0,"byteOffset":6048,"byteLength":64},{"buffer":0,"byteOffset":6112,"byteLength":12},{"buffer":0,"byteOffset":6124,"byteLength":36},{"buffer":0,"byteOffset":6160,"byteLength":8},{"buffer":0,"byteOffset":6168,"byteLength":32},{"buffer":0,"byteOffset":6200,"byteLength":8},{"buffer":0,"byteOffset":6208,"byteLength":24},{"buffer":0,"byteOffset":6232,"byteLength":8},{"buffer":0,"byteOffset":6240,"byteLength":32},{"buffer":0,"byteOffset":6272,"byteLength":8},{"buffer":0,"byteOffset":6280,"byteLength":24},{"buffer":0,"byteOffset":6304,"byteLength":8},{"buffer":0,"byteOffset":6312,"byteLength":32},{"buffer":0,"byteOffset":6344,"byteLength":8},{"buffer":0,"byteOffset":6352,"byteLength":32},{"buffer":0,"byteOffset":6384,"byteLength":8},{"buffer":0,"byteOffset":6392,"byteLength":24},{"buffer":0,"byteOffset":6416,"byteLength":8},{"buffer":0,"byteOffset":6424,"byteLength":32},{"buffer":0,"byteOffset":6456,"byteLength":8},{"buffer":0,"byteOffset":6464,"byteLength":24},{"buffer":0,"byteOffset":6488,"byteLength":16},{"buffer":0,"byteOffset":6504,"byteLength":64},{"buffer":0,"byteOffset":6568,"byteLength":8},{"buffer":0,"byteOffset":6576,"byteLength":24},{"buffer":0,"byteOffset":6600,"byteLength":16},{"buffer":0,"byteOffset":6616,"byteLength":64},{"buffer":0,"byteOffset":6680,"byteLength":8},{"buffer":0,"byteOffset":6688,"byteLength":24},{"buffer":0,"byteOffset":6712,"byteLength":8},{"buffer":0,"byteOffset":6720,"byteLength":32},{"buffer":0,"byteOffset":6752,"byteLength":16},{"buffer":0,"byteOffset":6768,"byteLength":64},{"buffer":0,"byteOffset":6832,"byteLength":8},{"buffer":0,"byteOffset":6840,"byteLength":24},{"buffer":0,"byteOffset":6864,"byteLength":16},{"buffer":0,"byteOffset":6880,"byteLength":64},{"buffer":0,"byteOffset":6944,"byteLength":8},{"buffer":0,"byteOffset":6952,"byteLength":24},{"buffer":0,"byteOffset":6976,"byteLength":8},{"buffer":0,"byteOffset":6984,"byteLength":32},{"buffer":0,"byteOffset":7016,"byteLength":8},{"buffer":0,"byteOffset":7024,"byteLength":24},{"buffer":0,"byteOffset":7048,"byteLength":8},{"buffer":0,"byteOffset":7056,"byteLength":32},{"buffer":0,"byteOffset":7088,"byteLength":8},{"buffer":0,"byteOffset":7096,"byteLength":24}],"buffers":[{"byteLength":7120,"uri":"data:application/octet-stream;base64,"}],"accessors":[{"bufferView":0,"componentType":5126,"count":24,"max":[0.25,1.5,0.125],"min":[-0.25,0.75,-0.125],"type":"VEC3"},{"bufferView":1,"componentType":5126,"count":24,"max":[1,1,1],"min":[-1,-1,-1],"type":"VEC3"},{"bufferView":2,"componentType":5126,"count":24,"max":[0.624755859375,0.499755859375],"min":[0.250244140625,0.250244140625],"type":"VEC2"},{"bufferView":3,"componentType":5123,"count":36,"max":[23],"min":[0],"type":"SCALAR"},{"bufferView":4,"componentType":5126,"count":24,"max":[0.28125,2.03125,0.28125],"min":[-0.28125,1.46875,-0.28125],"type":"VEC3"},{"bufferView":5,"componentType":5126,"count":24,"max":[1,1,1],"min":[-1,-1,-1],"type":"VEC3"},{"bufferView":6,"componentType":5126,"count":24,"max":[0.999755859375,0.249755859375],"min":[0.500244140625,0.000244140625],"type":"VEC2"},{"bufferView":7,"componentType":5123,"count":36,"max":[23],"min":[0],"type":"SCALAR"},{"bufferView":8,"componentType":5126,"count":24,"max":[0.25,0.25,0.25],"min":[-0.25,-0.25,-0.25],"type":"VEC3"},{"bufferView":9,"componentType":5126,"count":24,"max":[1,1,1],"min":[-1,-1,-1],"type":"VEC3"},{"bufferView":10,"componentType":5126,"count":24,"max":[0.499755859375,0.249755859375],"min":[0.000244140625,0.000244140625],"type":"VEC2"},{"bufferView":11,"componentType":5123,"count":36,"max":[23],"min":[0],"type":"SCALAR"},{"bufferView":12,"componentType":5126,"count":24,"max":[0.125,0.375,0.125],"min":[-0.125,-0.375,-0.125],"type":"VEC3"},{"bufferView":13,"componentType":5126,"count":24,"max":[1,1,1],"min":[-1,-1,-1],"type":"VEC3"},{"bufferView":14,"componentType":5126,"count":24,"max":[0.874755859375,0.499755859375],"min":[0.625244140625,0.250244140625],"type":"VEC2"},{"bufferView":15,"componentType":5123,"count":36,"max":[23],"min":[0],"type":"SCALAR"},{"bufferView":16,"componentType":5126,"count":24,"max":[0.125,0.375,0.125],"min":[-0.125,-0.375,-0.125],"type":"VEC3"},{"bufferView":17,"componentType":5126,"count":24,"max":[1,1,1],"min":[-1,-1,-1],"type":"VEC3"},{"bufferView":18,"componentType":5126,"count":24,"max":[0.874755859375,0.499755859375],"min":[0.625244140625,0.250244140625],"type":"VEC2"},{"bufferView":19,"componentType":5123,"count":36,"max":[23],"min":[0],"type":"SCALAR"},{"bufferView":20,"componentType":5126,"count":24,"max":[0.125,1.1102230246251565e-16,0.125],"min":[-0.125,-0.75,-0.125],"type":"VEC3"},{"bufferView":21,"componentType":5126,"count":24,"max":[1,1,1],"min":[-1,-1,-1],"type":"VEC3"},{"bufferView":22,"componentType":5126,"count":24,"max":[0.249755859375,0.499755859375],"min":[0.000244140625,0.250244140625],"type":"VEC2"},{"bufferView":23,"componentType":5123,"count":36,"max":[23],"min":[0],"type":"SCALAR"},{"bufferView":24,"componentType":5126,"count":24,"max":[0.13124999403953552,0.0625,0.125],"min":[-0.11874999850988388,-0.6875,-0.125],"type":"VEC3"},{"bufferView":25,"componentType":5126,"count":24,"max":[1,1,1],"min":[-1,-1,-1],"type":"VEC3"},{"bufferView":26,"componentType":5126,"count":24,"max":[0.249755859375,0.499755859375],"min":[0.000244140625,0.250244140625],"type":"VEC2"},{"bufferView":27,"componentType":5123,"count":36,"max":[23],"min":[0],"type":"SCALAR"},{"bufferView":28,"componentType":5126,"count":2,"max":[2.75],"min":[0],"type":"SCALAR"},{"bufferView":29,"componentType":5126,"count":2,"max":[0.017385995015501976,0.0871424674987793,-0.00152107747271657,0.9960429668426514],"min":[0.017385995015501976,0.0871424674987793,-0.00152107747271657,0.9960429668426514],"type":"VEC4"},{"bufferView":30,"componentType":5126,"count":4,"max":[2.75],"min":[0],"type":"SCALAR"},{"bufferView":31,"componentType":5126,"count":4,"max":[0.674947202205658,0.03413688763976097,-0.027153706178069115,0.781863272190094],"min":[0.6219221353530884,0.03215958550572395,-0.029468830674886703,0.7365756034851074],"type":"VEC4"},{"bufferView":32,"componentType":5126,"count":2,"max":[2.75],"min":[0],"type":"SCALAR"},{"bufferView":33,"componentType":5126,"count":2,"max":[0.3125,1.375,0],"min":[0.3125,1.375,0],"type":"VEC3"},{"bufferView":34,"componentType":5126,"count":4,"max":[2.75],"min":[0],"type":"SCALAR"},{"bufferView":35,"componentType":5126,"count":4,"max":[0.6813492774963379,-0.031901199370622635,0.029748350381851196,0.818372368812561],"min":[0.5730305314064026,-0.035730909556150436,0.025019053369760513,0.7306576371192932],"type":"VEC4"},{"bufferView":36,"componentType":5126,"count":3,"max":[2.75],"min":[0],"type":"SCALAR"},{"bufferView":37,"componentType":5126,"count":3,"max":[-0.3125,1.368749976158142,0],"min":[-0.3125,1.3562500476837158,0],"type":"VEC3"},{"bufferView":38,"componentType":5126,"count":2,"max":[2.75],"min":[0],"type":"SCALAR"},{"bufferView":39,"componentType":5126,"count":2,"max":[-0.00008726630039745942,0.001919860951602459,1.6753948273162678e-7,0.999998152256012],"min":[-0.00008726630039745942,0.001919860951602459,1.6753948273162678e-7,0.999998152256012],"type":"VEC4"},{"bufferView":40,"componentType":5126,"count":2,"max":[2.75],"min":[0],"type":"SCALAR"},{"bufferView":41,"componentType":5126,"count":2,"max":[0.11874999850988388,0.75,0],"min":[0.11874999850988388,0.75,0],"type":"VEC3"},{"bufferView":42,"componentType":5126,"count":2,"max":[2.75],"min":[0],"type":"SCALAR"},{"bufferView":43,"componentType":5126,"count":2,"max":[0,0,0,1],"min":[0,0,0,1],"type":"VEC4"},{"bufferView":44,"componentType":5126,"count":2,"max":[2.75],"min":[0],"type":"SCALAR"},{"bufferView":45,"componentType":5126,"count":2,"max":[-0.11874999850988388,0.75,0],"min":[-0.11874999850988388,0.75,0],"type":"VEC3"},{"bufferView":46,"componentType":5126,"count":2,"max":[1],"min":[0],"type":"SCALAR"},{"bufferView":47,"componentType":5126,"count":2,"max":[0.017385995015501976,0.0871424674987793,-0.00152107747271657,0.9960429668426514],"min":[0.017385995015501976,0.0871424674987793,-0.00152107747271657,0.9960429668426514],"type":"VEC4"},{"bufferView":48,"componentType":5126,"count":2,"max":[1],"min":[0],"type":"SCALAR"},{"bufferView":49,"componentType":5126,"count":2,"max":[0.6421757936477661,0.033414389938116074,-0.02803800255060196,0.7653153538703918],"min":[0.6421757936477661,0.033414389938116074,-0.02803800255060196,0.7653153538703918],"type":"VEC4"},{"bufferView":50,"componentType":5126,"count":2,"max":[1],"min":[0],"type":"SCALAR"},{"bufferView":51,"componentType":5126,"count":2,"max":[0.3125,1.375,0],"min":[0.3125,1.375,0],"type":"VEC3"},{"bufferView":52,"componentType":5126,"count":2,"max":[1],"min":[0],"type":"SCALAR"},{"bufferView":53,"componentType":5126,"count":2,"max":[0.6421757936477661,-0.033414389938116074,0.02803800255060196,0.7653153538703918],"min":[0.6421757936477661,-0.033414389938116074,0.02803800255060196,0.7653153538703918],"type":"VEC4"},{"bufferView":54,"componentType":5126,"count":2,"max":[1],"min":[0],"type":"SCALAR"},{"bufferView":55,"componentType":5126,"count":2,"max":[-0.3125,1.3562500476837158,0],"min":[-0.3125,1.3562500476837158,0],"type":"VEC3"},{"bufferView":56,"componentType":5126,"count":4,"max":[1],"min":[0],"type":"SCALAR"},{"bufferView":57,"componentType":5126,"count":4,"max":[0.30062201619148254,0.001919860951602459,0.0005774731398560107,0.999998152256012],"min":[-0.3007884621620178,0.0018309536390006542,-0.0005771535215899348,0.95368891954422],"type":"VEC4"},{"bufferView":58,"componentType":5126,"count":2,"max":[1],"min":[0],"type":"SCALAR"},{"bufferView":59,"componentType":5126,"count":2,"max":[0.11874999850988388,0.75,0],"min":[0.11874999850988388,0.75,0],"type":"VEC3"},{"bufferView":60,"componentType":5126,"count":4,"max":[1],"min":[0],"type":"SCALAR"},{"bufferView":61,"componentType":5126,"count":4,"max":[0.30070579051971436,0,0,1],"min":[-0.30070579051971436,0,0,0.9537169337272644],"type":"VEC4"},{"bufferView":62,"componentType":5126,"count":2,"max":[1],"min":[0],"type":"SCALAR"},{"bufferView":63,"componentType":5126,"count":2,"max":[-0.11874999850988388,0.75,0],"min":[-0.11874999850988388,0.75,0],"type":"VEC3"},{"bufferView":64,"componentType":5126,"count":2,"max":[0.4583333432674408],"min":[0],"type":"SCALAR"},{"bufferView":65,"componentType":5126,"count":2,"max":[0.017385995015501976,0.0871424674987793,-0.00152107747271657,0.9960429668426514],"min":[0.017385995015501976,0.0871424674987793,-0.00152107747271657,0.9960429668426514],"type":"VEC4"},{"bufferView":66,"componentType":5126,"count":4,"max":[0.4583333432674408],"min":[0],"type":"SCALAR"},{"bufferView":67,"componentType":5126,"count":4,"max":[0.7925982475280762,0.03824228420853615,-0.020980436354875565,0.8758922815322876],"min":[0.4805309772491455,0.026553800329566002,-0.03460558503866196,0.6081820130348206],"type":"VEC4"},{"bufferView":68,"componentType":5126,"count":2,"max":[0.4583333432674408],"min":[0],"type":"SCALAR"},{"bufferView":69,"componentType":5126,"count":2,"max":[0.3125,1.375,0],"min":[0.3125,1.375,0],"type":"VEC3"},{"bufferView":70,"componentType":5126,"count":4,"max":[0.4583333432674408],"min":[0],"type":"SCALAR"},{"bufferView":71,"componentType":5126,"count":4,"max":[0.7925982475280762,-0.026553800329566002,0.03460558503866196,0.8758922815322876],"min":[0.4805309772491455,-0.03824228420853615,0.020980436354875565,0.6081820130348206],"type":"VEC4"},{"bufferView":72,"componentType":5126,"count":2,"max":[0.4583333432674408],"min":[0],"type":"SCALAR"},{"bufferView":73,"componentType":5126,"count":2,"max":[-0.3125,1.3562500476837158,0],"min":[-0.3125,1.3562500476837158,0],"type":"VEC3"},{"bufferView":74,"componentType":5126,"count":2,"max":[0.4583333432674408],"min":[0],"type":"SCALAR"},{"bufferView":75,"componentType":5126,"count":2,"max":[-0.00008726630039745942,0.001919860951602459,1.6753948273162678e-7,0.999998152256012],"min":[-0.00008726630039745942,0.001919860951602459,1.6753948273162678e-7,0.999998152256012],"type":"VEC4"},{"bufferView":76,"componentType":5126,"count":2,"max":[0.4583333432674408],"min":[0],"type":"SCALAR"},{"bufferView":77,"componentType":5126,"count":2,"max":[0.11874999850988388,0.75,0],"min":[0.11874999850988388,0.75,0],"type":"VEC3"},{"bufferView":78,"componentType":5126,"count":2,"max":[0.4583333432674408],"min":[0],"type":"SCALAR"},{"bufferView":79,"componentType":5126,"count":2,"max":[0,0,0,1],"min":[0,0,0,1],"type":"VEC4"},{"bufferView":80,"componentType":5126,"count":2,"max":[0.4583333432674408],"min":[0],"type":"SCALAR"},{"bufferView":81,"componentType":5126,"count":2,"max":[-0.11874999850988388,0.75,0],"min":[-0.11874999850988388,0.75,0],"type":"VEC3"}],"materials":[{"pbrMetallicRoughness":{"metallicFactor":0,"roughnessFactor":1,"baseColorTexture":{"index":0}},"alphaMode":"MASK","alphaCutoff":0.05,"doubleSided":true},{"pbrMetallicRoughness":{"metallicFactor":0,"roughnessFactor":1},"alphaMode":"MASK","alphaCutoff":0.05,"doubleSided":true}],"textures":[{"sampler":0,"source":0,"name":"zombie.png"}],"samplers":[{"magFilter":9728,"minFilter":9728,"wrapS":33071,"wrapT":33071}],"images":[{"mimeType":"image/png","uri":"data:image/png;base64,"}],"meshes":[{"primitives":[{"mode":4,"attributes":{"POSITION":0,"NORMAL":1,"TEXCOORD_0":2},"indices":3,"material":0}]},{"primitives":[{"mode":4,"attributes":{"POSITION":4,"NORMAL":5,"TEXCOORD_0":6},"indices":7,"material":1}]},{"primitives":[{"mode":4,"attributes":{"POSITION":8,"NORMAL":9,"TEXCOORD_0":10},"indices":11,"material":0}]},{"primitives":[{"mode":4,"attributes":{"POSITION":12,"NORMAL":13,"TEXCOORD_0":14},"indices":15,"material":0}]},{"primitives":[{"mode":4,"attributes":{"POSITION":16,"NORMAL":17,"TEXCOORD_0":18},"indices":19,"material":0}]},{"primitives":[{"mode":4,"attributes":{"POSITION":20,"NORMAL":21,"TEXCOORD_0":22},"indices":23,"material":0}]},{"primitives":[{"mode":4,"attributes":{"POSITION":24,"NORMAL":25,"TEXCOORD_0":26},"indices":27,"material":0}]}],"animations":[{"name":"idle","samplers":[{"input":28,"output":29,"interpolation":"LINEAR"},{"input":30,"output":31,"interpolation":"LINEAR"},{"input":32,"output":33,"interpolation":"LINEAR"},{"input":34,"output":35,"interpolation":"LINEAR"},{"input":36,"output":37,"interpolation":"LINEAR"},{"input":38,"output":39,"interpolation":"LINEAR"},{"input":40,"output":41,"interpolation":"LINEAR"},{"input":42,"output":43,"interpolation":"LINEAR"},{"input":44,"output":45,"interpolation":"LINEAR"}],"channels":[{"sampler":0,"target":{"node":4,"path":"rotation"}},{"sampler":1,"target":{"node":6,"path":"rotation"}},{"sampler":2,"target":{"node":6,"path":"translation"}},{"sampler":3,"target":{"node":8,"path":"rotation"}},{"sampler":4,"target":{"node":8,"path":"translation"}},{"sampler":5,"target":{"node":10,"path":"rotation"}},{"sampler":6,"target":{"node":10,"path":"translation"}},{"sampler":7,"target":{"node":12,"path":"rotation"}},{"sampler":8,"target":{"node":12,"path":"translation"}}]},{"name":"walk","samplers":[{"input":46,"output":47,"interpolation":"LINEAR"},{"input":48,"output":49,"interpolation":"LINEAR"},{"input":50,"output":51,"interpolation":"LINEAR"},{"input":52,"output":53,"interpolation":"LINEAR"},{"input":54,"output":55,"interpolation":"LINEAR"},{"input":56,"output":57,"interpolation":"LINEAR"},{"input":58,"output":59,"interpolation":"LINEAR"},{"input":60,"output":61,"interpolation":"LINEAR"},{"input":62,"output":63,"interpolation":"LINEAR"}],"channels":[{"sampler":0,"target":{"node":4,"path":"rotation"}},{"sampler":1,"target":{"node":6,"path":"rotation"}},{"sampler":2,"target":{"node":6,"path":"translation"}},{"sampler":3,"target":{"node":8,"path":"rotation"}},{"sampler":4,"target":{"node":8,"path":"translation"}},{"sampler":5,"target":{"node":10,"path":"rotation"}},{"sampler":6,"target":{"node":10,"path":"translation"}},{"sampler":7,"target":{"node":12,"path":"rotation"}},{"sampler":8,"target":{"node":12,"path":"translation"}}]},{"name":"hit","samplers":[{"input":64,"output":65,"interpolation":"LINEAR"},{"input":66,"output":67,"interpolation":"LINEAR"},{"input":68,"output":69,"interpolation":"LINEAR"},{"input":70,"output":71,"interpolation":"LINEAR"},{"input":72,"output":73,"interpolation":"LINEAR"},{"input":74,"output":75,"interpolation":"LINEAR"},{"input":76,"output":77,"interpolation":"LINEAR"},{"input":78,"output":79,"interpolation":"LINEAR"},{"input":80,"output":81,"interpolation":"LINEAR"}],"channels":[{"sampler":0,"target":{"node":4,"path":"rotation"}},{"sampler":1,"target":{"node":6,"path":"rotation"}},{"sampler":2,"target":{"node":6,"path":"translation"}},{"sampler":3,"target":{"node":8,"path":"rotation"}},{"sampler":4,"target":{"node":8,"path":"translation"}},{"sampler":5,"target":{"node":10,"path":"rotation"}},{"sampler":6,"target":{"node":10,"path":"translation"}},{"sampler":7,"target":{"node":12,"path":"rotation"}},{"sampler":8,"target":{"node":12,"path":"translation"}}]}]}